<svg width="18" height="18" viewBox="0 0 18 18" fill="none" xmlns="http://www.w3.org/2000/svg">
<path d="M14.1767 12.8637L14.4887 15.3916C14.5687 16.0556 13.8567 16.5196 13.2887 16.1756L9.93677 14.1836C9.56878 14.1836 9.2088 14.1597 8.85681 14.1117C9.44879 13.4157 9.80078 12.5357 9.80078 11.5837C9.80078 9.31177 7.83283 7.47185 5.40089 7.47185C4.47292 7.47185 3.61694 7.73582 2.90496 8.19981C2.88096 7.99982 2.87296 7.79982 2.87296 7.59182C2.87296 3.95192 6.03287 1 9.93677 1C13.8407 1 17.0006 3.95192 17.0006 7.59182C17.0006 9.75176 15.8886 11.6637 14.1767 12.8637Z" stroke="#00413D" stroke-width="1.5" stroke-linecap="round" stroke-linejoin="round"/>
<path d="M9.79977 11.5835C9.79977 12.5355 9.44779 13.4155 8.8558 14.1115C8.06382 15.0715 6.80785 15.6874 5.39989 15.6874L3.31194 16.9274C2.95995 17.1434 2.51196 16.8474 2.55996 16.4394L2.75995 14.8635C1.68798 14.1195 1 12.9275 1 11.5835C1 10.1756 1.75198 8.93562 2.90395 8.19964C3.61594 7.73565 4.47191 7.47168 5.39989 7.47168C7.83182 7.47168 9.79977 9.3116 9.79977 11.5835Z" stroke="#00413D" stroke-width="1.5" stroke-linecap="round" stroke-linejoin="round"/>
</svg>
