<svg width="119" height="36" viewBox="0 0 119 36" fill="none" xmlns="http://www.w3.org/2000/svg">
<circle cx="11.05" cy="22.9499" r="11.05" fill="#E5745D"/>
<circle cx="27.2" cy="6.8" r="6.8" fill="#E5745D"/>
<path d="M48.1902 28V5.45402H52.3129V24.7791H62.2975V28H48.1902ZM72.7756 28.3865C71.2296 28.3865 69.8339 28.0322 68.5885 27.3236C67.3646 26.615 66.3876 25.638 65.6575 24.3926C64.9489 23.1258 64.5946 21.6657 64.5946 20.0123C64.5946 18.3589 64.9597 16.9095 65.6897 15.6641C66.4198 14.3973 67.3968 13.4095 68.6207 12.7009C69.8661 11.9924 71.2618 11.6381 72.8078 11.6381C74.3324 11.6381 75.7066 11.9924 76.9305 12.7009C78.1759 13.4095 79.1529 14.3973 79.8615 15.6641C80.5916 16.9095 80.9566 18.3589 80.9566 20.0123C80.9566 21.6657 80.5916 23.1258 79.8615 24.3926C79.1529 25.638 78.1759 26.615 76.9305 27.3236C75.6851 28.0322 74.3001 28.3865 72.7756 28.3865ZM72.7756 24.8114C73.8492 24.8114 74.7833 24.4141 75.5778 23.6196C76.3722 22.8037 76.7695 21.6012 76.7695 20.0123C76.7695 18.4233 76.3722 17.2316 75.5778 16.4371C74.7833 15.6212 73.86 15.2132 72.8078 15.2132C71.7127 15.2132 70.7679 15.6212 69.9735 16.4371C69.2005 17.2316 68.814 18.4233 68.814 20.0123C68.814 21.6012 69.2005 22.8037 69.9735 23.6196C70.7679 24.4141 71.702 24.8114 72.7756 24.8114ZM90.4 23.2331C89.627 23.2331 88.9076 23.1472 88.242 22.9755L87.0503 24.1672C87.4153 24.3604 87.9092 24.5215 88.5319 24.6503C89.1546 24.7791 90.1638 24.908 91.5595 25.0368C93.6852 25.2301 95.2313 25.7347 96.1975 26.5506C97.1638 27.3666 97.6469 28.4939 97.6469 29.9325C97.6469 30.8773 97.3892 31.7684 96.8739 32.6058C96.3586 33.4647 95.5641 34.1518 94.4905 34.6672C93.4168 35.204 92.0426 35.4724 90.3678 35.4724C88.0917 35.4724 86.2558 35.0429 84.8601 34.184C83.4644 33.3466 82.7665 32.0797 82.7665 30.3834C82.7665 28.9448 83.4644 27.6994 84.8601 26.6472C84.4307 26.454 84.0549 26.25 83.7328 26.0353C83.4322 25.8206 83.1638 25.5951 82.9276 25.3589V24.6181L85.7297 21.6549C84.4843 20.5598 83.8616 19.1534 83.8616 17.4356C83.8616 16.362 84.1193 15.385 84.6346 14.5046C85.1715 13.6243 85.923 12.9264 86.8892 12.4111C87.8555 11.8957 89.0257 11.6381 90.4 11.6381C91.3018 11.6381 92.1392 11.7669 92.9122 12.0246H98.9674V14.5368L96.2297 14.7301C96.6592 15.546 96.8739 16.4479 96.8739 17.4356C96.8739 18.5092 96.6162 19.4862 96.1009 20.3666C95.5855 21.2469 94.834 21.9448 93.8463 22.4601C92.88 22.9755 91.7313 23.2331 90.4 23.2331ZM90.4 20.0767C91.2374 20.0767 91.9245 19.8512 92.4613 19.4003C93.0196 18.9494 93.2987 18.3052 93.2987 17.4678C93.2987 16.6304 93.0196 15.9862 92.4613 15.5353C91.9245 15.0844 91.2374 14.8589 90.4 14.8589C89.5196 14.8589 88.811 15.0844 88.2742 15.5353C87.7374 15.9862 87.469 16.6304 87.469 17.4678C87.469 18.3052 87.7374 18.9494 88.2742 19.4003C88.811 19.8512 89.5196 20.0767 90.4 20.0767ZM86.5349 29.9647C86.5349 30.7592 86.9 31.3497 87.63 31.7362C88.3816 32.1442 89.2941 32.3482 90.3678 32.3482C91.3984 32.3482 92.2359 32.1334 92.88 31.704C93.5242 31.296 93.8463 30.7377 93.8463 30.0291C93.8463 29.4494 93.6316 28.9663 93.2021 28.5798C92.7941 28.1933 91.9675 27.9571 90.7221 27.8712C89.8417 27.8067 89.0257 27.7101 88.2742 27.5813C87.6515 27.9248 87.2006 28.3006 86.9215 28.7086C86.6638 29.1166 86.5349 29.5353 86.5349 29.9647ZM109.01 28.3865C107.464 28.3865 106.069 28.0322 104.823 27.3236C103.599 26.615 102.622 25.638 101.892 24.3926C101.184 23.1258 100.829 21.6657 100.829 20.0123C100.829 18.3589 101.194 16.9095 101.924 15.6641C102.654 14.3973 103.631 13.4095 104.855 12.7009C106.101 11.9924 107.496 11.6381 109.042 11.6381C110.567 11.6381 111.941 11.9924 113.165 12.7009C114.411 13.4095 115.388 14.3973 116.096 15.6641C116.826 16.9095 117.191 18.3589 117.191 20.0123C117.191 21.6657 116.826 23.1258 116.096 24.3926C115.388 25.638 114.411 26.615 113.165 27.3236C111.92 28.0322 110.535 28.3865 109.01 28.3865ZM109.01 24.8114C110.084 24.8114 111.018 24.4141 111.812 23.6196C112.607 22.8037 113.004 21.6012 113.004 20.0123C113.004 18.4233 112.607 17.2316 111.812 16.4371C111.018 15.6212 110.095 15.2132 109.042 15.2132C107.947 15.2132 107.003 15.6212 106.208 16.4371C105.435 17.2316 105.049 18.4233 105.049 20.0123C105.049 21.6012 105.435 22.8037 106.208 23.6196C107.003 24.4141 107.937 24.8114 109.01 24.8114Z" fill="#4B7773"/>
</svg>
