<svg width="19" height="18" viewBox="0 0 19 18" fill="none" xmlns="http://www.w3.org/2000/svg">
<path fill-rule="evenodd" clip-rule="evenodd" d="M0.909119 9C0.909119 5.40486 0.909119 3.60729 1.76581 2.31255C2.14836 1.73439 2.64351 1.23925 3.22167 0.856692C4.51641 0 6.31398 0 9.90912 0C13.5043 0 15.3018 0 16.5966 0.856692C17.1747 1.23925 17.6699 1.73439 18.0524 2.31255C18.9091 3.60729 18.9091 5.40486 18.9091 9C18.9091 12.5951 18.9091 14.3927 18.0524 15.6874C17.6699 16.2656 17.1747 16.7608 16.5966 17.1433C15.3018 18 13.5043 18 9.90912 18C6.31398 18 4.51641 18 3.22167 17.1433C2.64351 16.7608 2.14836 16.2656 1.76581 15.6874C0.909119 14.3927 0.909119 12.5951 0.909119 9ZM14.5684 9.00023C14.5684 11.5735 12.4823 13.6596 9.90896 13.6596C7.33564 13.6596 5.24955 11.5735 5.24955 9.00023C5.24955 6.42691 7.33564 4.34082 9.90896 4.34082C12.4823 4.34082 14.5684 6.42691 14.5684 9.00023ZM9.90896 12.0832C11.6117 12.0832 12.992 10.7029 12.992 9.00023C12.992 7.29753 11.6117 5.91722 9.90896 5.91722C8.20626 5.91722 6.82595 7.29753 6.82595 9.00023C6.82595 10.7029 8.20626 12.0832 9.90896 12.0832ZM14.7524 5.20155C15.357 5.20155 15.8472 4.71138 15.8472 4.10673C15.8472 3.50207 15.357 3.0119 14.7524 3.0119C14.1477 3.0119 13.6576 3.50207 13.6576 4.10673C13.6576 4.71138 14.1477 5.20155 14.7524 5.20155Z" fill="#4C4C4C"/>
</svg>
