<svg width="19" height="17" viewBox="0 0 19 17" fill="none" xmlns="http://www.w3.org/2000/svg">
<path d="M0.909119 1.97475C0.909119 1.40235 1.11183 0.930123 1.51723 0.558081C1.92263 0.186021 2.44966 0 3.09831 0C3.73538 0 4.25081 0.183154 4.64464 0.549495C5.05004 0.927273 5.25275 1.41952 5.25275 2.02626C5.25275 2.57576 5.05584 3.03366 4.66201 3.4C4.25661 3.77778 3.72379 3.96667 3.06356 3.96667H3.04618C2.40911 3.96667 1.89368 3.77778 1.49985 3.4C1.10602 3.02222 0.909119 2.54713 0.909119 1.97475ZM1.13499 17V5.52929H4.99213V17H1.13499ZM7.1292 17H10.9863V10.5949C10.9863 10.1943 11.0327 9.88517 11.1253 9.66768C11.2875 9.27845 11.5336 8.94932 11.8638 8.6803C12.1939 8.41127 12.608 8.27677 13.106 8.27677C14.4033 8.27677 15.052 9.14107 15.052 10.8697V17H18.9091V10.4232C18.9091 8.72895 18.5037 7.44394 17.6929 6.56818C16.8821 5.69242 15.8107 5.25455 14.4786 5.25455C12.9844 5.25455 11.8203 5.8899 10.9863 7.16061V7.19495H10.969L10.9863 7.16061V5.52929H7.1292C7.15236 5.89562 7.16394 7.03467 7.16394 8.94646C7.16394 10.8582 7.15236 13.5427 7.1292 17Z" fill="#4C4C4C"/>
</svg>
