<svg width="19" height="15" viewBox="0 0 19 15" fill="none" xmlns="http://www.w3.org/2000/svg">
<path fill-rule="evenodd" clip-rule="evenodd" d="M3.49471 0.634521C2.06946 0.634521 0.914062 1.78992 0.914062 3.21517V11.8173C0.914062 13.2426 2.06946 14.398 3.49471 14.398H15.5377C16.963 14.398 18.1184 13.2426 18.1184 11.8173V3.21517C18.1184 1.78992 16.963 0.634521 15.5377 0.634521H3.49471ZM2.71304 2.85554C2.84921 2.56006 3.14801 2.35495 3.49471 2.35495H15.5377C15.8844 2.35495 16.1832 2.56006 16.3194 2.85554L10.0443 7.73614C9.7337 7.97774 9.29873 7.97774 8.98809 7.73614L2.71304 2.85554ZM2.63449 4.974V9.98072L5.74212 7.39104L2.63449 4.974ZM2.7058 12.1608C2.83841 12.4649 3.14173 12.6775 3.49471 12.6775H15.5377C15.8907 12.6775 16.194 12.4649 16.3266 12.1608L11.9003 8.47217L11.1006 9.09416C10.1687 9.81897 8.86375 9.81897 7.93185 9.09416L7.13215 8.47217L2.7058 12.1608ZM16.3979 9.98072V4.974L13.2903 7.39104L16.3979 9.98072Z" fill="#141313"/>
</svg>
