<svg width="15" height="16" viewBox="0 0 15 16" fill="none" xmlns="http://www.w3.org/2000/svg">
<path fill-rule="evenodd" clip-rule="evenodd" d="M1.43347 2.0035C2.94517 0.491792 5.39613 0.491792 6.90784 2.0035C8.41955 3.51521 8.41955 5.96617 6.90784 7.47787C6.34515 8.04056 5.65233 8.39381 4.92626 8.53761L7.06464 10.676C7.20844 9.94991 7.56168 9.25709 8.12437 8.6944C9.63608 7.18269 12.087 7.18269 13.5987 8.6944C15.1105 10.2061 15.1105 12.6571 13.5987 14.1688C12.1898 15.5777 9.96507 15.6735 8.44521 14.4562L8.4285 14.4729L8.12437 14.1688L1.43347 7.47787L1.12933 7.17374L1.14604 7.15704C-0.0712491 5.63717 0.0245596 3.41241 1.43347 2.0035ZM9.3409 12.9522C10.1807 13.7921 11.5424 13.7921 12.3822 12.9522C13.2221 12.1124 13.2221 10.7508 12.3822 9.91093C11.5424 9.07109 10.1807 9.07109 9.3409 9.91093C8.50106 10.7508 8.50106 12.1124 9.3409 12.9522ZM5.69131 6.26135C4.85148 7.10118 3.48983 7.10118 2.64999 6.26135C1.81016 5.42151 1.81016 4.05986 2.64999 3.22003C3.48983 2.38019 4.85148 2.38019 5.69131 3.22003C6.53115 4.05986 6.53115 5.42151 5.69131 6.26135Z" fill="#141313"/>
</svg>
