<svg width="17" height="18" viewBox="0 0 17 18" fill="none" xmlns="http://www.w3.org/2000/svg">
<path d="M7.6303 0C3.42533 0 0 3.42533 0 7.63032C0 11.8353 3.42533 15.2673 7.6303 15.2673C9.42637 15.2673 11.0782 14.6378 12.3837 13.5928L15.562 16.7694C15.7224 16.9232 15.9367 17.008 16.1588 17.0057C16.381 17.0035 16.5934 16.9143 16.7507 16.7573C16.9079 16.6003 16.9974 16.388 16.9999 16.1659C17.0025 15.9437 16.918 15.7293 16.7645 15.5687L13.5861 12.3904C14.6321 11.0829 15.2623 9.42846 15.2623 7.63032C15.2623 3.42533 11.8353 0 7.6303 0V0ZM7.6303 1.69602C10.9187 1.69602 13.5646 4.34193 13.5646 7.63032C13.5646 10.9187 10.9187 13.5713 7.6303 13.5713C4.34191 13.5713 1.69599 10.9187 1.69599 7.63032C1.69599 4.34193 4.34191 1.69602 7.6303 1.69602Z" fill="#00413D"/>
</svg>
