<svg width="19" height="14" viewBox="0 0 19 14" fill="none" xmlns="http://www.w3.org/2000/svg">
<path d="M12.9361 0.00310766V0H13.7801L14.0885 0.0590455C14.2941 0.0973785 14.4808 0.147614 14.6485 0.209767C14.8162 0.27192 14.9785 0.344437 15.1354 0.427303C15.2923 0.510169 15.4346 0.594604 15.5623 0.680577C15.6889 0.765525 15.8025 0.855647 15.9032 0.950943C16.0027 1.04728 16.158 1.07214 16.369 1.02553C16.58 0.978912 16.8072 0.914164 17.0507 0.831299C17.2941 0.748433 17.5349 0.655203 17.7729 0.551609C18.011 0.448016 18.156 0.382242 18.2079 0.354273C18.2588 0.325279 18.2858 0.30974 18.2891 0.307658L18.2923 0.302997L18.3085 0.295228L18.3248 0.287458L18.341 0.279689L18.3572 0.27192L18.3605 0.267259L18.3654 0.264151L18.3702 0.261043L18.3735 0.256382L18.3897 0.25172L18.4059 0.248613L18.4027 0.27192L18.3978 0.295228L18.3897 0.318535L18.3816 0.341842L18.3735 0.357381L18.3654 0.372919L18.3572 0.396226C18.3518 0.411765 18.3464 0.432477 18.341 0.45838C18.3356 0.484282 18.2842 0.58786 18.1868 0.769145C18.0894 0.950431 17.9677 1.1343 17.8216 1.32075C17.6755 1.50721 17.5446 1.64808 17.4289 1.7434C17.312 1.83973 17.2346 1.90706 17.1967 1.94539C17.1589 1.98475 17.1129 2.021 17.0588 2.05416L16.9776 2.10544L16.9614 2.11321L16.9452 2.12098L16.9419 2.12564L16.937 2.12875L16.9322 2.13185L16.9289 2.13652L16.9127 2.14428L16.8965 2.15205L16.8932 2.15671L16.8883 2.15982L16.8835 2.16293L16.8802 2.16759L16.877 2.17225L16.8721 2.17536L16.8672 2.17847L16.864 2.18313H16.9452L17.3996 2.0899C17.7026 2.02775 17.992 1.95265 18.268 1.86459L18.7062 1.72475L18.7549 1.70921L18.7792 1.70144L18.7955 1.69367L18.8117 1.6859L18.8279 1.67814L18.8442 1.67037L18.8766 1.6657L18.9091 1.6626V1.69367L18.901 1.69678L18.8929 1.70144L18.8896 1.7061L18.8847 1.70921L18.8799 1.71232L18.8766 1.71698L18.8734 1.72164L18.8685 1.72475L18.8636 1.72786L18.8604 1.73252L18.8572 1.73718L18.8523 1.74029L18.8442 1.75583L18.8361 1.77137L18.8312 1.77447C18.829 1.77758 18.7603 1.86562 18.625 2.03862C18.4898 2.21265 18.4168 2.30069 18.4059 2.30277C18.3951 2.30588 18.38 2.32142 18.3605 2.34939C18.3421 2.37838 18.2274 2.4939 18.0164 2.69589C17.8054 2.89789 17.5987 3.07761 17.3964 3.23507C17.193 3.39356 17.0902 3.5883 17.088 3.81931C17.0848 4.04928 17.0723 4.3093 17.0507 4.59933C17.029 4.88939 16.9884 5.20273 16.9289 5.5394C16.8694 5.87607 16.7774 6.25676 16.653 6.68147C16.5286 7.10617 16.3771 7.52053 16.1985 7.92453C16.02 8.32852 15.8333 8.69108 15.6386 9.01221C15.4438 9.33334 15.2653 9.60526 15.103 9.82797C14.9406 10.0507 14.7756 10.2604 14.6079 10.4573C14.4402 10.6541 14.2281 10.8758 13.9717 11.1223C13.7141 11.3678 13.5735 11.5025 13.5497 11.5263C13.5248 11.5491 13.4188 11.634 13.2315 11.7811C13.0454 11.9293 12.8452 12.0774 12.631 12.2255C12.4178 12.3726 12.222 12.4954 12.0434 12.5938C11.8649 12.6922 11.6496 12.8046 11.3975 12.931C11.1464 13.0584 10.8748 13.1765 10.5827 13.2852C10.2905 13.394 9.98213 13.495 9.65751 13.5882C9.33289 13.6815 9.0191 13.754 8.71612 13.8058C8.41316 13.8576 8.0696 13.9016 7.68546 13.9378L7.10927 13.9922V14H6.05426V13.9922L5.9163 13.9845C5.82434 13.9793 5.74859 13.9741 5.68907 13.9689C5.62957 13.9637 5.40503 13.9353 5.01549 13.8835C4.62595 13.8317 4.32027 13.7799 4.09845 13.7281C3.87664 13.6763 3.5466 13.5779 3.10837 13.4329C2.67013 13.2878 2.2952 13.1412 1.98357 12.9931C1.67302 12.846 1.47825 12.7528 1.39926 12.7134C1.32135 12.6751 1.2337 12.6275 1.13632 12.5705L0.990242 12.485L0.987012 12.4804L0.982127 12.4772L0.977258 12.4741L0.974011 12.4695L0.957781 12.4617L0.94155 12.4539L0.93832 12.4493L0.933434 12.4462L0.928565 12.4431L0.925319 12.4384L0.922089 12.4337L0.917204 12.4306H0.909088V12.3996L0.925319 12.4027L0.94155 12.4073L1.01459 12.4151C1.06328 12.4203 1.19584 12.428 1.41224 12.4384C1.62867 12.4488 1.85859 12.4488 2.10205 12.4384C2.34552 12.428 2.5944 12.4047 2.84867 12.3685C3.10296 12.3322 3.40323 12.2701 3.74948 12.182C4.09575 12.094 4.41388 11.9893 4.70387 11.8681C4.99278 11.7459 5.19836 11.6548 5.32065 11.5947C5.44183 11.5356 5.62686 11.4258 5.87572 11.2653L6.24903 11.0244L6.25228 11.0198L6.25715 11.0166L6.26203 11.0135L6.26526 11.0089L6.26851 11.0042L6.27338 11.0011L6.27827 10.998L6.2815 10.9933L6.29773 10.9887L6.31396 10.9856L6.3172 10.97L6.32207 10.9545L6.32696 10.9514L6.33019 10.9467L6.20034 10.939C6.11378 10.9338 6.02992 10.9286 5.94876 10.9234C5.86761 10.9182 5.74047 10.8949 5.56734 10.8535C5.39422 10.8121 5.20757 10.7499 5.00737 10.667C4.8072 10.5842 4.61243 10.4858 4.42306 10.3718C4.23372 10.2579 4.09682 10.1631 4.01242 10.0875C3.92911 10.0129 3.8209 9.90721 3.68781 9.77048C3.5558 9.63271 3.4411 9.4913 3.34371 9.34628C3.24633 9.20126 3.15328 9.03395 3.06456 8.8444L2.92983 8.5616L2.92171 8.53829L2.9136 8.51498L2.90873 8.49944L2.90548 8.48391L2.92983 8.48701L2.95417 8.49168L3.13271 8.51498C3.25175 8.53052 3.4384 8.5357 3.69268 8.53052C3.94697 8.52535 4.12279 8.51498 4.22018 8.49944C4.31756 8.48391 4.37708 8.47354 4.39872 8.46837L4.43118 8.4606L4.47176 8.45283L4.51233 8.44506L4.51558 8.4404L4.52045 8.43729L4.52534 8.43418L4.52857 8.42952L4.4961 8.42175L4.46364 8.41398L4.43118 8.40622L4.39872 8.39845L4.36626 8.39068C4.34462 8.3855 4.30675 8.37514 4.25264 8.3596C4.19854 8.34406 4.05247 8.28708 3.81441 8.18868C3.57637 8.09028 3.387 7.99445 3.24633 7.90122C3.10531 7.80772 2.97084 7.70547 2.8438 7.59512C2.7172 7.48324 2.57817 7.33925 2.42667 7.16315C2.27519 6.98706 2.13994 6.78246 2.0209 6.54939C1.90188 6.31632 1.81261 6.09361 1.75309 5.88124C1.69381 5.67013 1.6547 5.4543 1.63625 5.2364L1.60701 4.9101L1.62325 4.91321L1.63948 4.91787L1.65571 4.92564L1.67194 4.93341L1.68817 4.94118L1.7044 4.94895L1.95598 5.05771C2.12371 5.13023 2.332 5.19238 2.58086 5.24417C2.82975 5.29596 2.97852 5.32446 3.02721 5.32963L3.10025 5.3374H3.24633L3.2431 5.33274L3.23821 5.32963L3.23334 5.32653L3.2301 5.32186L3.22687 5.3172L3.22198 5.3141L3.21711 5.31099L3.21387 5.30633L3.19764 5.29856L3.18141 5.29079L3.17818 5.28613L3.17329 5.28302L3.16842 5.27991L3.16517 5.27525L3.14894 5.26748L3.13271 5.25971L3.12948 5.25505C3.12624 5.25297 3.0797 5.21982 2.98988 5.1556C2.90115 5.09034 2.8081 5.00592 2.71071 4.90233C2.61333 4.79874 2.51594 4.68997 2.41856 4.57603C2.32099 4.46182 2.23409 4.33964 2.15886 4.21088C2.08313 4.0814 2.00305 3.91667 1.91865 3.71676C1.83533 3.51787 1.77203 3.31743 1.72875 3.11543C1.68547 2.91343 1.66113 2.71403 1.65571 2.5172C1.6503 2.32038 1.65571 2.15205 1.67194 2.01221C1.68817 1.87236 1.72063 1.71439 1.76932 1.53829C1.81802 1.3622 1.88836 1.17574 1.98032 0.978912L2.11829 0.683685L2.1264 0.660377L2.13452 0.63707L2.1394 0.633962L2.14263 0.629301L2.14588 0.624639L2.15075 0.621532L2.15563 0.624639L2.15886 0.629301L2.16211 0.633962L2.16698 0.63707L2.17186 0.640178L2.17509 0.644839L2.17834 0.649501L2.18321 0.652608L2.19132 0.668146L2.19944 0.683685L2.20433 0.686792L2.20756 0.691454L2.42667 0.924528C2.57275 1.07991 2.74588 1.25343 2.94606 1.44506C3.14625 1.63669 3.25715 1.73614 3.27879 1.7434C3.30044 1.75168 3.32748 1.7755 3.35994 1.81487C3.39241 1.85321 3.50062 1.94488 3.68456 2.0899C3.86852 2.23492 4.10927 2.40326 4.40683 2.59489C4.70441 2.78653 5.03443 2.97558 5.39691 3.16204C5.75941 3.3485 6.14895 3.51683 6.56554 3.66704C6.98213 3.81725 7.27429 3.91565 7.442 3.96226C7.60973 4.00888 7.89646 4.06844 8.30224 4.14095C8.70801 4.21347 9.0137 4.26009 9.21928 4.2808C9.42487 4.30151 9.56555 4.31343 9.64128 4.31654L9.7549 4.31964L9.75167 4.29634L9.74678 4.27303L9.71432 4.0788C9.69268 3.94932 9.68186 3.76804 9.68186 3.53496C9.68186 3.30189 9.7008 3.08695 9.73866 2.89012C9.77655 2.6933 9.83335 2.4939 9.90909 2.2919C9.98484 2.0899 10.059 1.92777 10.1315 1.80555C10.205 1.68435 10.3013 1.54606 10.4204 1.39068C10.5394 1.23529 10.6936 1.07474 10.8829 0.90899C11.0723 0.743243 11.2887 0.595629 11.5322 0.466149C11.7756 0.336668 12.0002 0.238249 12.2058 0.170921C12.4113 0.103594 12.5845 0.0595583 12.7251 0.0388457C12.8658 0.0181332 12.9361 0.00621532 12.9361 0.00310766Z" fill="white"/>
</svg>
