<svg width="19" height="13" viewBox="0 0 19 13" fill="none" xmlns="http://www.w3.org/2000/svg">
<path d="M9.40787 12.983L5.71497 12.9125C4.51929 12.8879 3.32064 12.9369 2.1484 12.6824C0.36516 12.302 0.238828 10.4371 0.106636 8.87274C-0.0755111 6.67349 -0.0049964 4.43432 0.338739 2.25343C0.532789 1.02972 1.29645 0.299528 2.47744 0.220069C6.46412 -0.0683005 10.4773 -0.0341257 14.4552 0.100409C14.8753 0.112742 15.2983 0.18015 15.7125 0.256879C17.7573 0.63111 17.8072 2.7445 17.9398 4.52357C18.072 6.32101 18.0161 8.12767 17.7635 9.91287C17.5608 11.391 17.1729 12.6305 15.5362 12.7501C13.4855 12.9066 11.4819 13.0326 9.42546 12.9925C9.42555 12.983 9.41374 12.983 9.40787 12.983ZM7.2368 9.24085C8.78217 8.31446 10.2981 7.4035 11.8346 6.48332C10.2863 5.55692 8.77333 4.64596 7.2368 3.72578V9.24085Z" fill="#4C4C4C"/>
</svg>
