<?xml version="1.0" standalone="no"?>
<!DOCTYPE svg PUBLIC "-//W3C//DTD SVG 1.1//EN" "http://www.w3.org/Graphics/SVG/1.1/DTD/svg11.dtd">
<svg xmlns="http://www.w3.org/2000/svg">
<metadata>Copyright (C) 2023 by original authors @ fontello.com</metadata>
<defs>
<font id="portfolio" horiz-adv-x="1000" >
<font-face font-family="portfolio" font-weight="400" font-stretch="normal" units-per-em="1000" ascent="850" descent="-150" />
<missing-glyph horiz-adv-x="1000" />
<glyph glyph-name="comment" unicode="&#xe800;" d="M788 135l17-140c4-37-35-63-67-44l-186 111c-20 0-40 1-60 4 33 39 53 88 53 141 0 126-110 228-245 228-51 0-99-15-139-40-1 11-1 22-1 33 0 202 175 366 392 366 217 0 393-164 393-366 0-120-62-226-157-293z m-244 72c0-53-19-102-52-141-44-53-114-88-192-88l-116-68c-20-12-44 4-42 27l11 87c-59 42-97 108-97 183 0 78 41 147 105 188 40 25 87 40 139 40 135 0 244-102 244-228z" horiz-adv-x="1000" />

<glyph glyph-name="downaload" unicode="&#xe801;" d="M645 472c141-13 199-85 199-244v-5c0-175-71-246-246-246h-255c-176 0-246 71-246 246v5c0 158 57 230 196 243m178 271v-505m131 88l-131-132-132 132" horiz-adv-x="941" />

<glyph glyph-name="facebook" unicode="&#xe802;" d="M361-150v456h163l25 178h-188v113c0 52 15 87 94 87l101 0v159c-18 2-78 7-147 7-145 0-245-83-245-235v-131h-164v-178h164v-456h197v0z" horiz-adv-x="556" />

<glyph glyph-name="instagram" unicode="&#xe803;" d="M51 350c0 200 0 300 47 372 21 32 49 59 81 80 72 48 172 48 372 48 199 0 299 0 371-48 32-21 60-48 81-80 48-72 48-172 48-372 0-200 0-300-48-372-21-32-49-59-81-80-72-48-172-48-371-48-200 0-300 0-372 48-32 21-60 48-81 80-47 72-47 172-47 372z m758 0c0-143-115-259-258-259-143 0-259 116-259 259 0 143 116 259 259 259 143 0 258-116 258-259z m-258-171c94 0 171 76 171 171 0 95-77 171-171 171-95 0-172-76-172-171 0-95 77-171 172-171z m269 382c33 0 60 27 60 61 0 33-27 61-60 61-34 0-61-28-61-61 0-34 27-61 61-61z" horiz-adv-x="1056" />

<glyph glyph-name="instagram-solid" unicode="&#xe804;" d="M999 540c-2 52-10 88-22 119-13 33-32 62-56 86-25 25-54 45-86 57-31 12-66 20-117 23-52 2-68 3-200 3-131 0-148-1-199-3-52-3-87-11-118-23-32-12-61-32-85-57-25-24-44-54-56-86-12-31-20-67-23-119-2-52-3-69-3-201 0-133 1-150 3-202 3-52 11-87 23-118 12-33 31-63 56-87 24-25 53-44 85-56 31-12 66-21 118-23 51-2 68-3 199-3 131 0 148 1 199 3 52 2 87 11 118 23 65 25 116 77 141 143 12 31 20 66 23 118 2 52 3 69 3 202 0 132-1 149-3 201z m-87-399c-2-48-10-73-17-91-16-42-49-76-91-93-17-6-43-14-90-16-51-3-67-3-196-3-129 0-144 0-195 3-47 2-73 10-90 16-21 8-40 21-55 37-16 16-29 35-36 56-7 17-15 43-17 91-2 51-3 67-3 197 0 131 1 146 3 198 2 48 10 73 17 90 7 22 20 41 36 57 16 16 34 28 55 36 17 7 43 15 90 17 51 2 66 3 196 3 129 0 144-1 195-3 47-2 73-10 90-17 21-8 40-20 55-36 16-16 29-35 36-57 7-17 15-43 17-90 2-52 3-67 3-198 0-130-1-145-3-197z m-394 449c-137 0-248-113-248-251 0-139 111-251 248-251 137 0 249 112 249 251 0 138-112 251-249 251z m0-414c-89 0-161 73-161 163 0 90 72 163 161 163 89 0 161-73 161-163 0-90-72-163-161-163z m317 424c0-33-26-59-58-59-32 0-58 26-58 59 0 32 26 58 58 58 32 0 58-26 58-58z" horiz-adv-x="1048" />

<glyph glyph-name="linkedin" unicode="&#xe805;" d="M54 734c0 34 11 61 35 83 24 22 55 33 93 33 38 0 68-11 91-32 24-22 36-51 36-87 0-32-12-59-35-81-24-22-55-33-94-33h-1c-37 0-68 11-91 33-23 22-34 50-34 84z m13-884v675h227v-675h-227z m352 0h227v377c0 23 3 42 8 54 10 23 24 43 44 58 19 16 44 24 73 24 76 0 114-51 114-152v-361h227v387c0 100-23 175-71 227-48 51-111 77-189 77-88 0-157-37-206-112v-2h-1l1 2v96h-227c2-22 2-89 2-201 0-113 0-271-2-474z" horiz-adv-x="1118" />

<glyph glyph-name="location" unicode="&#xe806;" d="M533 357l-200-329-199 329c-96 159 16 365 199 365 184 0 296-206 200-365z m-475-48c-133 220 22 504 275 504 254 0 409-284 276-504l-246-405c-14-23-46-23-59 0l-246 405z m275 276c-49 0-89-41-89-91 0-51 40-92 89-92 50 0 90 41 90 92 0 50-40 91-90 91z" horiz-adv-x="667" />

<glyph glyph-name="message" unicode="&#xe807;" d="M233 808c-95 0-172-77-172-172v-574c0-95 77-172 172-172h803c95 0 172 77 172 172v574c0 95-77 172-172 172h-803z m-52-148c9 19 29 33 52 33h803c23 0 43-14 52-33l-418-326c-21-16-50-16-71 0l-418 326z m-5-142v-333l207 172-207 161z m4-479c9-20 29-34 53-34h803c23 0 44 14 52 34l-295 246-53-41c-62-49-149-49-211 0l-53 41-296-246z m913 146v333l-207-161 207-172z" horiz-adv-x="1267" />

<glyph glyph-name="phone" unicode="&#xe808;" d="M90 725c94 94 247 94 342 0 94-95 94-248 0-342-35-35-79-58-124-67l134-133c9 45 31 88 66 124 94 94 247 94 342 0 94-95 94-248 0-343-88-88-227-94-322-18l-1-1-19 19-418 419-19 19 1 1c-77 95-70 234 18 322z m494-684c52-53 137-53 190 0 52 52 52 137 0 190-53 52-138 52-190 0-53-53-53-138 0-190z m-228 418c-53-53-138-53-190 0-53 52-53 137 0 190 52 52 137 52 190 0 52-53 52-138 0-190z" horiz-adv-x="938" />

<glyph glyph-name="play" unicode="&#xe809;" d="M844 404c41-24 41-84 0-108l-750-433c-42-24-94 6-94 54l0 866c0 48 52 78 94 54l750-433z" horiz-adv-x="875" />

<glyph glyph-name="search" unicode="&#xe80a;" d="M424 850c-234 0-424-190-424-424 0-233 190-424 424-424 100 0 192 35 264 93l177-177c9-8 20-13 33-13 12 0 24 5 33 14 8 9 13 21 13 33 1 12-4 24-13 33l-176 177c58 72 93 164 93 264 0 234-190 424-424 424v0z m0-94c183 0 330-147 330-330 0-183-147-330-330-330-183 0-330 147-330 330 0 183 147 330 330 330z" horiz-adv-x="944" />

<glyph glyph-name="time" unicode="&#xe80b;" d="M944 350c0-245-199-444-444-444-245 0-444 199-444 444 0 245 199 444 444 444 245 0 444-199 444-444z m-279-141l-138 82c-24 14-43 48-43 76v183" horiz-adv-x="1000" />

<glyph glyph-name="twitter" unicode="&#xe80c;" d="M924 850v0h60l22-4c15-3 28-6 40-11 12-4 24-10 35-15 11-6 22-12 31-19 9-6 17-12 24-19 7-7 18-9 33-5 15 3 32 8 49 14 17 6 35 12 52 20 17 7 27 12 31 14 3 2 5 3 5 3l1 0 1 1 1 1 1 0 1 1 1 0 0 0 0 0 0 1 2 0 1 0 0-1-1-2 0-2-1-1-1-1 0-2-1-1c0-1 0-3-1-5 0-2-4-9-11-22-7-13-16-26-26-39-10-14-20-24-28-30-8-7-14-12-17-15-2-3-6-5-9-8l-6-3-1-1-2 0 0-1 0 0-1 0 0-1-1 0-1-1 0 0-1 0 0 0 0-1 0 0-1 0 0-1 0 0h5l33 7c22 4 42 10 62 16l31 10 4 1 1 1 2 0 1 1 1 0 1 1 2 0 3 0v-2l-1 0 0 0-1-1 0 0 0 0-1-1 0 0 0 0-1 0 0-1 0 0 0 0-1-1-1-1 0-1c0 0-5-6-15-19-9-12-14-18-15-18-1-1-2-2-3-4-2-2-10-10-25-25-15-14-30-27-44-38-15-11-22-25-22-42-1-16-2-35-3-55-2-21-4-44-9-68-4-24-11-51-19-81-9-31-20-60-33-89-13-29-26-55-40-78-14-23-27-42-38-58-12-16-24-31-36-45-12-14-27-30-45-47-18-18-28-28-30-29-2-2-9-8-23-18-13-11-27-22-43-32-15-11-29-20-42-27-12-7-28-15-46-24-18-9-37-17-58-25-21-8-43-15-66-22-23-6-46-11-67-15-22-4-47-7-74-10l-41-3v-1h-76v1l-9 0c-7 0-12 1-17 1-4 1-20 3-48 6-28 4-49 8-65 11-16 4-40 11-71 21-31 11-58 21-80 32-22 10-36 17-42 20-6 3-12 6-19 10l-10 6 0 0-1 1 0 0 0 0-2 1-1 0 0 1 0 0-1 0 0 0 0 1 0 0h-1v2l1 0 1 0 6-1c3 0 12-1 28-2 15 0 32 0 49 0 18 1 35 3 54 5 18 3 39 8 64 14 25 6 47 14 68 22 21 9 35 16 44 20 9 4 22 12 40 23l26 18 1 0 0 0 0 0 1 1 0 0 0 0 0 0 1 1 1 0 1 0 0 1 1 2 0 0 0 0-9 1c-6 0-12 0-18 1-6 0-15 2-27 5-13 3-26 7-40 13-15 6-28 13-42 21-14 8-23 15-29 21-6 5-14 12-24 22-9 10-17 20-24 30-7 11-14 23-20 36l-10 21 0 1-1 2 0 1 0 1 1 0 2 0 13-2c8-1 22-2 40-1 18 0 31 1 37 2 7 1 12 2 13 2l3 1 2 0 3 1 1 0 0 0 0 1 1 0-3 0-2 1-2 1-3 0-2 1c-2 0-4 1-8 2-4 1-14 5-31 12-17 7-31 14-41 21-10 6-20 14-29 22-9 8-19 18-30 30-10 13-20 28-29 44-8 17-14 33-19 48-4 15-7 30-8 46l-2 23 1 0 1 0 1-1 1 0 2-1 1 0 18-8c12-5 27-10 44-14 18-3 29-5 32-6l5 0h11l0 0-1 0 0 1 0 0 0 0-1 0 0 1 0 0-2 1-1 0 0 0 0 1-1 0 0 0-1 1-1 0 0 1c-1 0-4 2-10 7-7 4-13 10-20 18-7 7-14 15-21 23-7 8-13 17-19 26-5 10-11 21-17 36-6 14-10 28-13 43-4 14-5 28-6 42 0 14 0 26 1 36 2 10 4 22 7 34 4 13 9 26 16 40l9 21 1 2 1 2 0 0 0 0 0 0 1 1 0-1 0 0 0 0 1 0 0-1 0 0 1 0 0-1 1-1 0-1 1 0 0 0 15-17c11-11 23-23 37-37 15-14 23-21 24-21 2-1 4-3 6-6 2-2 10-9 23-19 13-11 31-23 52-36 21-14 45-27 71-41 25-13 53-25 83-36 30-11 51-18 63-21 12-3 32-8 61-13 29-5 51-8 66-10 14-1 24-2 30-2l8 0 0 1-1 2-2 14c-2 9-2 22-2 39 0 16 1 32 4 46 2 14 6 28 12 42 5 15 11 26 16 35 5 9 12 19 20 30 9 11 20 22 33 34 14 12 29 23 47 32 17 9 33 16 48 21 15 5 27 8 37 9 10 2 15 3 15 3z" horiz-adv-x="1357" />

<glyph glyph-name="user" unicode="&#xe80d;" d="M437 350c123 0 223 100 223 222 0 123-100 222-223 222-122 0-222-99-222-222 0-122 100-222 222-222z m382-444c0 172-171 311-382 311-210 0-381-139-381-311" horiz-adv-x="889" />

<glyph glyph-name="vimeo-black" unicode="&#xe80e;" d="M1142 619c-5-113-82-267-233-462-155-205-287-307-394-307-67 0-123 62-169 187-31 114-62 229-92 343-35 125-71 187-111 187-8 0-38-18-89-55l-54 70c56 51 112 101 167 151 75 66 131 100 169 104 88 9 143-53 164-184 22-142 37-231 46-265 25-118 53-177 84-177 24 0 60 38 108 114 48 76 73 134 77 174 6 66-19 99-77 99-28 0-56-6-85-18 57 185 164 275 323 270 118-4 173-81 166-231z" horiz-adv-x="1143" />

<glyph glyph-name="year" unicode="&#xe80f;" d="M130 674c0 26 20 46 46 46h648c26 0 46-20 46-46v-648c0-26-20-46-46-46l-46 0c0 128-104 231-232 231h-92c-128 0-232-103-232-231l-46 0c-26 0-46 20-46 46v648z m185-694h370c0 76-62 139-139 139h-92c-77 0-139-63-139-139z m-139 833c-77 0-139-62-139-139v-648c0-77 62-139 139-139h648c77 0 139 62 139 139v648c0 77-62 139-139 139h-648z m231-370c0-51 42-93 93-93 51 0 93 42 93 93 0 51-42 92-93 92-51 0-93-41-93-92z m93 185c-102 0-185-83-185-185 0-103 83-186 185-186 102 0 185 83 185 186 0 102-83 185-185 185z" horiz-adv-x="1000" />

<glyph glyph-name="youtube" unicode="&#xe810;" d="M724-149l-284 6c-92 2-185-2-275 17-137 30-147 173-157 294-14 169-8 341 18 509 15 94 74 150 165 156 306 22 615 20 921 9 32-1 65-6 97-12 157-28 161-191 171-328 10-138 6-277-14-414-15-114-45-210-171-219-158-12-312-22-470-18 0 0-1 0-1 0z m-167 288c119 71 235 142 353 212-119 72-235 142-353 212v-424z" horiz-adv-x="1462" />

<glyph glyph-name="arrow-down" unicode="&#xe811;" d="M500 800l0-900m-450 450l450-450 450 450" horiz-adv-x="1000" />

<glyph glyph-name="arrow-left" unicode="&#xe812;" d="M950 350h-900m450 450l-450-450 450-450" horiz-adv-x="1000" />

<glyph glyph-name="arrow-right" unicode="&#xe813;" d="M50 350l900 0m-450-450l450 450-450 450" horiz-adv-x="1000" />

<glyph glyph-name="arrow-right-long" unicode="&#xe814;" d="M864 805l455-455-455-455m-818 455h1260" horiz-adv-x="1409" />

<glyph glyph-name="arrow-right-top" unicode="&#xe815;" d="M313 800v-120h395l-695-695 84-85 696 695v-395h120v600h-600z" horiz-adv-x="938" />

<glyph glyph-name="arrow-right-top-long" unicode="&#xe816;" d="M325 830v-128h422l-742-742 90-90 742 742v-422h128v640h-640z" horiz-adv-x="975" />

<glyph glyph-name="arrow-up" unicode="&#xe817;" d="M500-100v900m450-450l-450 450-450-450" horiz-adv-x="1000" />

<glyph glyph-name="beche" unicode="&#xe818;" d="M933 601c-45 77-105 137-182 182-77 45-160 67-251 67-91 0-174-22-251-67-77-45-137-105-182-182-45-77-67-160-67-251 0-91 22-174 67-251 45-77 105-137 182-182 77-45 160-67 251-67 91 0 174 22 251 67 77 45 137 105 182 182 45 77 67 160 67 251 0 91-22 174-67 251z m-433 166c100 0 189-32 266-96-46-59-114-107-205-145-50 91-104 166-163 227 34 9 68 14 102 14z m-324-157c37 47 82 84 135 111 61-60 116-135 167-225-100-30-206-45-317-45-29 0-50 1-65 2 15 57 42 110 80 157z m-93-260c0 3 0 6 1 10 0 4 0 7 0 10 13-1 32-1 58-1 133 0 257 18 372 55 9-19 19-40 29-63-66-15-134-50-203-107-69-57-120-116-152-179-70 79-105 171-105 275z m417-417c-95 0-180 29-255 88 30 59 76 116 139 170 62 54 124 88 185 101 39-107 65-217 78-331-49-19-98-28-147-28z m354 198c-33-53-76-97-129-131-12 104-35 205-69 304 47 3 88 5 125 5 40 0 84-2 133-5-7-62-27-120-60-173z m-62 250c-58 0-112-2-161-7-13 33-24 60-34 81 103 45 177 100 220 165 60-71 93-151 98-242-41 2-82 3-123 3z" horiz-adv-x="1000" />

<glyph glyph-name="being" unicode="&#xe819;" d="M1026 784h392v-97h-392v97z m-393-382c87 42 132 106 132 205 0 196-143 243-309 243h-456v-981h469c176 0 340 86 340 285 0 123-57 214-176 248z m-420 281h199c77 0 146-22 146-112 0-84-54-117-130-117h-215v229z m227-647h-227v270h231c94 0 153-40 153-140 0-99-71-130-157-130z m1131 178c0 210-121 385-340 385-213 0-358-163-358-376 0-221 137-373 358-373 167 0 275 76 328 239h-170c-19-61-94-93-152-93-113 0-172 67-172 181h505c1 12 1 24 1 37z m-506 86c6 94 68 152 160 152 96 0 145-57 153-152h-313z" horiz-adv-x="1571" />
</font>
</defs>
</svg>
