<svg width="430" height="411" viewBox="0 0 430 411" fill="none" xmlns="http://www.w3.org/2000/svg" xmlns:xlink="http://www.w3.org/1999/xlink">

    <style>
        @keyframes pulse {
        0% {
        -webkit-transform: scale(1);
        transform: scale(1);
        }
        70% {
        -webkit-transform: scale(0.8);
        transform: scale(0.8);
        }
        100% {
        -webkit-transform: scale(1);
        transform: scale(1);
        }
        }

        @keyframes top-bottom {
        0% {
        -webkit-transform: translate(0, 0);
        transform: translate(0, 0);
        }
        70% {
        -webkit-transform: translate(0, -20px);
        transform: translate(0, -20px);
        }
        100% {
        -webkit-transform: translate(0, 0);
        transform: translate(0, 0);
        }
        }

        @keyframes left {
        0% {
        -webkit-transform: translate(0, 0);
        transform: translate(0, 0);
        }
        70% {
        -webkit-transform: translate(-70px, 40.5px);
        transform: translate(-70px, 40.5px);
        }
        100% {
        -webkit-transform: translate(0, 0);
        transform: translate(0, 0);
        }
        }

        #circle { animation: top-bottom 3s ease-in-out infinite; }
    </style>
    <g id="circle">
<rect x="73.5498" y="190.666" width="3.99454" height="3.99454" fill="#010101"/>
<rect x="53.9998" y="190.666" width="3.99454" height="3.99454" fill="#010101"/>
<rect x="96.1206" y="190" width="3.99454" height="3.99454" transform="rotate(30 96.1206 190)" fill="#010101"/>
<rect x="118.286" y="190" width="3.99454" height="3.99454" transform="rotate(60 118.286 190)" fill="#010101"/>
<rect x="73.5496" y="209.438" width="3.99454" height="3.99454" fill="#010101"/>
<rect x="53.9995" y="209.438" width="3.99454" height="3.99454" fill="#010101"/>
<rect x="96.1853" y="208.772" width="3.99454" height="3.99454" transform="rotate(30 96.1853 208.772)" fill="#010101"/>
<rect x="118.286" y="208.772" width="3.99454" height="3.99454" transform="rotate(60 118.286 208.772)" fill="#010101"/>
<rect x="73.5496" y="228.209" width="3.99454" height="3.99454" fill="#010101"/>
<rect x="53.9995" y="228.209" width="3.99454" height="3.99454" fill="#010101"/>
<rect x="96.1853" y="227.543" width="3.99454" height="3.99454" transform="rotate(30 96.1853 227.543)" fill="#010101"/>
<rect x="118.286" y="227.543" width="3.99454" height="3.99454" transform="rotate(60 118.286 227.543)" fill="#010101"/>
    </g>
<path d="M23.016 274.416C35.504 321.249 66.4394 361.059 109.017 385.089C151.594 409.118 202.326 415.399 250.051 402.548C297.776 389.698 338.586 358.77 363.503 316.567C388.42 274.364 395.402 224.344 382.914 177.511L202.965 225.963L23.016 274.416Z" fill="url(#paint0_linear_89_313)"/>
<mask id="mask0_89_313" style="mask-type:alpha" maskUnits="userSpaceOnUse" x="19" y="-90" width="367" height="499">
<path d="M26.5147 282.062C1.81644 189.438 41.8666 -61.7766 137.377 -87.4933C232.887 -113.21 355.267 95.0983 379.965 187.723C404.663 280.347 347.259 376.282 251.748 401.999C154.517 428.923 51.2129 374.687 26.5147 282.062Z" fill="#B7B8F9"/>
</mask>
<g mask="url(#mask0_89_313)">
<rect x="17.8098" y="0.641235" width="400.739" height="417.508" fill="url(#pattern0)"/>
</g>
<path d="M284.408 339.721C284.29 339.861 284.162 339.831 284.055 339.821C283.594 339.821 283.123 339.811 282.662 339.791C280.082 339.642 277.512 339.582 274.932 339.642C273.01 339.681 271.087 339.761 269.165 339.871C266.693 340.021 264.231 340.21 261.759 340.39C259.689 340.54 257.61 340.719 255.54 340.859C253.774 340.979 252.009 341.059 250.243 341.159C249.968 341.179 249.694 341.189 249.429 341.248C248.683 341.408 248.056 341.797 247.565 342.396C247.398 342.596 247.251 342.815 247.104 343.025C243.347 348.415 239.237 353.495 234.686 358.216C232.518 360.462 230.203 362.558 227.731 364.464C225.211 366.41 222.503 368.017 219.59 369.265C217.246 370.263 214.803 370.872 212.263 371.111C208.81 371.441 205.475 370.912 202.238 369.704C201.12 369.295 200.031 368.816 198.972 368.277C197.432 367.498 196.088 366.44 194.94 365.143C193.812 363.855 193.125 362.348 193.008 360.611C192.978 360.202 193.037 359.773 193.106 359.364C193.292 358.226 193.694 357.178 194.303 356.21C195.411 354.433 196.814 352.966 198.491 351.758C201.316 349.732 204.367 348.135 207.584 346.878C211.017 345.53 214.538 344.462 218.129 343.624C221.189 342.905 224.279 342.306 227.388 341.817C229.477 341.488 231.567 341.179 233.666 340.909C235.745 340.65 237.835 340.44 239.914 340.22C241.091 340.101 242.278 340.011 243.455 339.901C243.75 339.871 244.034 339.841 244.318 339.771C245.182 339.562 245.898 339.093 246.437 338.374C246.624 338.124 246.79 337.865 246.957 337.595C249.694 333.274 252.234 328.832 254.677 324.331C258.865 316.626 262.681 308.741 266.134 300.676C268.635 294.837 270.901 288.909 272.804 282.84C273.843 279.527 274.736 276.163 275.374 272.74C275.58 271.662 275.756 270.574 275.893 269.476C276.06 268.169 275.982 266.851 275.717 265.564C275.599 264.975 275.393 264.426 275.109 263.897C274.403 262.529 273.235 261.781 271.734 261.541C270.852 261.402 269.989 261.501 269.125 261.691C266.732 262.24 264.446 263.098 262.22 264.106C259.091 265.524 256.079 267.161 253.137 268.947C245.407 273.638 238.217 279.078 231.616 285.306C228.251 288.47 225.152 291.883 222.425 295.636C220.973 297.622 219.698 299.708 218.688 301.964C217.972 303.581 217.393 305.237 217.059 306.984C216.883 307.922 216.853 308.861 217.069 309.799C217.295 310.817 217.785 311.685 218.521 312.404C219.06 312.933 219.669 313.362 220.345 313.671C221.817 314.34 223.357 314.739 224.965 314.879C225.995 314.969 227.025 314.909 228.055 314.829C229.801 314.699 231.537 314.46 233.264 314.11C234.107 313.941 234.951 313.771 235.794 313.651C237.011 313.482 238.227 313.462 239.443 313.611C240.012 313.681 240.199 314.12 239.865 314.58C239.747 314.749 239.571 314.809 239.375 314.829C239.071 314.869 238.757 314.899 238.453 314.929C236.677 315.109 234.912 315.388 233.146 315.717C231.184 316.077 229.203 316.316 227.212 316.456C225.73 316.566 224.259 316.506 222.788 316.296C221.728 316.147 220.689 315.917 219.678 315.588C218.609 315.238 217.609 314.729 216.706 314.041C214.597 312.444 213.695 310.288 213.93 307.643C214.038 306.485 214.332 305.377 214.666 304.269C215.382 301.914 216.441 299.728 217.707 297.632C219.031 295.436 220.561 293.39 222.18 291.414C224.73 288.29 227.535 285.406 230.517 282.701C236.883 276.912 243.759 271.842 251.126 267.46C254.333 265.554 257.619 263.807 261.043 262.33C263.122 261.431 265.231 260.653 267.428 260.124C267.997 259.984 268.566 259.855 269.145 259.775C270.901 259.535 272.637 259.575 274.363 260.044C277.502 260.883 278.807 263.258 279.16 265.594C279.366 266.981 279.346 268.388 279.229 269.785C279.013 272.44 278.444 275.035 277.777 277.61C276.521 282.431 274.913 287.142 273.137 291.783C270.077 299.788 266.585 307.603 262.857 315.308C260.415 320.339 257.865 325.319 255.148 330.21C253.921 332.415 252.656 334.601 251.293 336.727C251.008 337.166 250.743 337.615 250.469 338.065C250.4 338.184 250.322 338.304 250.282 338.434C250.184 338.793 250.39 339.113 250.753 339.162C250.89 339.182 251.028 339.182 251.165 339.172C251.783 339.152 252.401 339.132 253.019 339.103C254.637 339.023 256.246 338.953 257.865 338.863C259.444 338.783 261.023 338.673 262.602 338.613C265.624 338.504 268.645 338.384 271.676 338.324C274.344 338.274 277.002 338.434 279.65 338.753C280.965 338.913 282.279 339.083 283.564 339.392C283.8 339.452 284.025 339.522 284.261 339.602C284.31 339.622 284.349 339.681 284.408 339.721ZM243.632 341.987C243.21 341.907 242.239 341.907 241.768 341.977C239.738 342.247 237.717 342.516 235.687 342.776C234.421 342.935 233.166 343.075 231.9 343.235C229.448 343.554 227.006 343.973 224.573 344.432C221.052 345.091 217.579 345.919 214.166 346.977C211.998 347.646 209.84 348.365 207.751 349.273C205.367 350.301 203.111 351.549 201.031 353.126C199.884 354.004 198.864 355.002 197.961 356.14C197.402 356.839 196.941 357.587 196.617 358.426C195.97 360.112 196.137 361.719 197.098 363.226C197.51 363.875 198.001 364.464 198.589 364.953C199.119 365.392 199.658 365.831 200.217 366.241C201.699 367.308 203.297 368.157 205.043 368.686C207.358 369.394 209.712 369.434 212.086 369.075C214.038 368.786 215.892 368.177 217.687 367.338C220.277 366.131 222.699 364.644 224.965 362.887C227.624 360.831 230.086 358.545 232.44 356.14C234.755 353.764 236.922 351.259 238.992 348.674C240.228 347.127 241.405 345.54 242.612 343.963C242.994 343.464 243.289 342.915 243.534 342.336C243.573 342.217 243.593 342.107 243.632 341.987Z" fill="#141313"/>
<path d="M393 350.012C392.804 350.072 392.598 350.062 392.402 350.052C391.1 350.032 389.797 350.012 388.494 349.973C387.123 349.933 385.752 349.873 384.381 349.813C382.824 349.733 381.267 349.653 379.7 349.554C377.418 349.404 375.146 349.244 372.873 349.065C371.13 348.925 369.387 348.755 367.644 348.586C366.223 348.446 364.813 348.296 363.393 348.127C361.738 347.917 360.093 347.698 358.447 347.458C355.019 346.96 351.601 346.361 348.193 345.722C345.931 345.293 343.678 344.854 341.416 344.425C338.919 343.957 336.411 343.538 333.894 343.198C331.838 342.919 329.781 342.67 327.714 342.42C325.129 342.111 322.534 341.812 319.948 341.512C319.625 341.472 319.292 341.452 318.978 341.393C318.743 341.343 318.587 341.432 318.43 341.582C318.058 341.961 317.666 342.34 317.284 342.709C314.268 345.663 311.261 348.636 308.225 351.579C305.208 354.492 302.123 357.315 298.872 359.959C297.021 361.466 295.121 362.903 293.084 364.15C290.988 365.437 288.765 366.434 286.395 367.073C285.259 367.372 284.113 367.562 282.937 367.462C281.39 367.332 280.156 366.644 279.245 365.357C278.55 364.369 278.178 363.252 277.982 362.064C277.708 360.398 277.815 358.752 278.148 357.116C278.658 354.592 279.637 352.247 280.939 350.042C282.477 347.438 284.367 345.154 286.737 343.298C288.314 342.061 290.028 341.083 291.957 340.535C292.966 340.245 293.995 340.036 295.023 339.856C296.296 339.627 297.569 339.467 298.852 339.367C300.047 339.277 301.252 339.228 302.456 339.277C304.356 339.367 306.266 339.307 308.166 339.178C309.488 339.088 310.801 338.998 312.123 339.078C312.554 339.108 312.975 339.138 313.406 339.198C314.796 339.387 315.942 338.948 316.814 337.811C319.684 334.079 322.445 330.268 324.884 326.228C325.413 325.35 325.893 324.442 326.402 323.544C326.5 323.364 326.608 323.185 326.715 323.005C329.536 318.286 332.357 313.567 335.197 308.868C336.96 305.945 338.556 302.932 340.113 299.899C342.503 295.23 344.736 290.491 346.724 285.632C348.174 282.08 349.447 278.459 350.436 274.747C350.661 273.899 350.867 273.051 351.043 272.203C351.308 270.946 351.337 269.669 351.2 268.392C351.131 267.804 350.994 267.225 350.759 266.676C350.093 265.06 348.879 264.142 347.214 263.813C346.274 263.623 345.343 263.713 344.403 263.853C341.915 264.222 339.506 264.93 337.146 265.768C333.581 267.035 330.124 268.592 326.745 270.308C320.017 273.72 313.631 277.701 307.588 282.26C306.276 283.248 305.062 284.365 303.886 285.512C302.633 286.73 301.408 287.977 300.155 289.194C299.146 290.172 298.118 291.119 297.089 292.067C296.776 292.356 296.423 292.616 296.071 292.855C295.797 293.035 295.503 293.195 295.199 293.304C294.563 293.534 293.985 293.394 293.475 292.945C293.446 292.925 293.427 292.895 293.397 292.875C292.77 292.267 292.682 291.768 293.103 291C293.319 290.611 293.593 290.241 293.877 289.892C294.533 289.084 295.297 288.376 296.081 287.687C297.324 286.59 298.627 285.552 299.959 284.565C304.366 281.292 308.842 278.1 313.435 275.107C319.772 270.976 326.461 267.544 333.493 264.83C335.785 263.943 338.125 263.174 340.515 262.616C342.023 262.256 343.541 262.007 345.089 261.887C345.843 261.827 346.597 261.887 347.351 261.967C348.448 262.077 349.515 262.336 350.544 262.755C352.542 263.583 353.825 265.05 354.373 267.175C354.53 267.784 354.618 268.402 354.637 269.041C354.686 270.817 354.442 272.562 354.079 274.288C353.56 276.753 352.777 279.137 351.925 281.502C350.426 285.662 348.673 289.703 346.773 293.683C343.522 300.518 339.947 307.162 336.157 313.697C332.886 319.344 329.477 324.901 325.863 330.328C324.218 332.802 322.494 335.227 320.692 337.581C320.555 337.761 320.418 337.941 320.291 338.13C320.007 338.569 320.085 339.028 320.526 339.307C320.692 339.417 320.888 339.517 321.084 339.557C321.554 339.667 322.024 339.786 322.494 339.836C323.581 339.966 324.678 340.056 325.775 340.175C326.461 340.245 327.137 340.345 327.822 340.415C328.331 340.475 328.841 340.535 329.36 340.564C330.731 340.654 332.092 340.844 333.444 341.053C335.696 341.412 337.949 341.782 340.201 342.161C342.523 342.55 344.834 342.969 347.145 343.368C349.682 343.807 352.218 344.256 354.755 344.685C357.39 345.134 360.034 345.583 362.678 346.002C365.087 346.391 367.497 346.75 369.906 347.099C372.08 347.419 374.254 347.708 376.429 347.997C377.996 348.207 379.563 348.386 381.13 348.556C383.402 348.805 385.674 349.025 387.936 349.264C389.317 349.414 390.698 349.564 392.079 349.713C392.334 349.743 392.588 349.783 392.843 349.823C392.892 349.863 392.98 349.873 393 350.012ZM313.2 341.293C313.151 341.263 313.122 341.223 313.092 341.223C312.515 341.173 311.927 341.083 311.349 341.103C308.127 341.193 304.905 341.323 301.683 341.432C299.9 341.492 298.118 341.612 296.355 341.861C294.837 342.081 293.348 342.41 291.908 342.939C289.529 343.807 287.433 345.124 285.699 347.019C284.358 348.466 283.241 350.072 282.409 351.878C281.341 354.163 280.567 356.547 280.322 359.081C280.234 359.959 280.264 360.827 280.479 361.685C280.871 363.292 281.919 364.229 283.525 364.449C284.279 364.559 285.033 364.499 285.778 364.379C287.207 364.15 288.559 363.651 289.911 363.132C291.135 362.653 292.271 362.005 293.319 361.216C293.515 361.067 293.711 360.937 293.897 360.777C294.896 359.929 295.934 359.111 296.894 358.223C299.91 355.42 302.917 352.606 305.894 349.763C308.078 347.688 310.066 345.413 312.044 343.138C312.446 342.68 312.779 342.171 313.073 341.632C313.122 341.512 313.151 341.402 313.2 341.293Z" fill="#141313"/>
<path d="M373.843 329.436C373.735 329.158 373.647 328.919 373.559 328.67C373.206 327.703 373.059 326.718 373.166 325.692C373.235 325.054 373.451 324.477 373.814 323.949C374.167 323.431 374.627 323.052 375.216 322.833C376.294 322.445 377.393 322.365 378.51 322.674C379.344 322.903 379.913 323.451 380.285 324.228C380.472 324.616 380.413 324.925 380.128 325.234C379.805 325.572 379.491 325.662 379.109 325.493C378.854 325.383 378.618 325.244 378.432 325.024C378.295 324.865 378.148 324.716 378.01 324.566C377.844 324.387 377.648 324.248 377.412 324.158C376.932 323.979 376.441 324.118 376.098 324.507C375.912 324.726 375.804 324.975 375.716 325.244C375.451 326.09 375.49 326.937 375.794 327.763C376.079 328.55 376.412 329.317 376.726 330.094C376.785 330.233 376.873 330.373 376.961 330.502C377.108 330.731 377.324 330.811 377.589 330.741C377.775 330.691 377.952 330.632 378.128 330.562C379.991 329.835 381.844 329.108 383.707 328.381C383.884 328.311 384.06 328.241 384.247 328.191C384.364 328.162 384.482 328.152 384.6 328.162C384.796 328.172 384.913 328.301 384.943 328.49C384.982 328.779 384.933 329.048 384.815 329.307C384.776 329.387 384.678 329.456 384.59 329.496C384.355 329.606 384.109 329.695 383.874 329.795C382.354 330.432 380.825 331.08 379.383 331.896C379.118 332.046 378.854 332.225 378.599 332.394C378.216 332.653 378.059 333.012 378.197 333.48C378.295 333.799 378.373 334.117 378.501 334.426C378.844 335.292 379.04 336.189 379.118 337.115C379.197 338.081 378.883 338.898 378.187 339.565C377.844 339.894 377.461 340.153 377.049 340.362C376.343 340.73 375.598 340.989 374.824 341.178C373.725 341.457 372.608 341.676 371.48 341.786C370.813 341.846 370.146 341.846 369.48 341.716C368.852 341.597 368.313 341.318 367.862 340.86C367.293 340.272 367.136 339.575 367.362 338.788C367.489 338.35 367.705 337.952 367.979 337.583C368.323 337.105 368.734 336.677 369.195 336.308C369.695 335.91 370.215 335.532 370.735 335.163C371.627 334.536 372.519 333.928 373.412 333.291C373.706 333.082 373.98 332.842 374.235 332.584C374.569 332.245 374.706 331.817 374.578 331.339C374.569 331.289 374.529 331.249 374.49 331.169C374.422 331.229 374.353 331.279 374.314 331.339C373.363 332.673 372.166 333.729 370.784 334.585C369.98 335.093 369.146 335.551 368.254 335.88C366.205 336.647 364.106 336.816 361.978 336.259C361.498 336.129 361.027 335.96 360.596 335.701C359.733 335.183 359.184 334.446 359.037 333.42C359.017 333.301 358.988 333.181 358.958 333.022C358.841 333.082 358.752 333.111 358.674 333.171C357.37 334.067 355.977 334.785 354.565 335.452C353.761 335.83 352.918 335.93 352.045 335.84C351.908 335.83 351.771 335.79 351.643 335.761C351.094 335.621 350.751 335.263 350.594 334.715C350.457 334.217 350.486 333.709 350.535 333.211C350.614 332.354 350.839 331.538 351.173 330.741C351.33 330.353 351.467 329.964 351.604 329.566C351.663 329.367 351.722 329.158 351.585 328.968C351.339 328.879 351.133 328.988 350.947 329.098C350.545 329.327 350.133 329.556 349.761 329.835C349.094 330.323 348.427 330.821 347.78 331.339C346.456 332.404 345.221 333.56 344.044 334.785C343.877 334.964 343.721 335.143 343.554 335.322C343.132 335.78 342.613 336.069 341.995 336.159C341.701 336.199 341.406 336.159 341.151 336C340.73 335.731 340.602 335.342 340.818 334.874C340.946 334.585 341.093 334.316 341.24 334.038C342.407 331.767 343.573 329.486 344.74 327.215C344.819 327.056 344.897 326.907 344.985 326.757C345.26 326.329 345.642 326.07 346.113 325.901C346.78 325.652 347.407 326.379 347.329 326.917C347.3 327.136 347.221 327.355 347.152 327.574C347.064 327.843 346.956 328.092 346.868 328.361C346.819 328.49 346.79 328.63 346.77 328.769C346.75 328.879 346.76 328.998 346.868 329.038C346.937 329.068 347.045 329.058 347.113 329.028C347.27 328.958 347.417 328.859 347.564 328.769C348.211 328.371 348.839 327.952 349.496 327.574C350.035 327.265 350.584 326.976 351.153 326.727C351.741 326.469 352.359 326.309 353.006 326.339C353.055 326.339 353.114 326.339 353.163 326.349C354.301 326.429 354.948 327.215 354.83 328.351C354.801 328.66 354.722 328.978 354.614 329.267C354.281 330.144 353.918 331.01 353.565 331.886C353.497 332.066 353.428 332.245 353.369 332.424C353.31 332.643 353.301 332.872 353.359 333.091C353.448 333.38 353.585 333.5 353.889 333.48C354.056 333.47 354.232 333.44 354.389 333.39C354.732 333.271 355.066 333.151 355.399 333.002C356.742 332.394 357.968 331.598 359.194 330.791C359.36 330.681 359.488 330.552 359.547 330.363C359.576 330.263 359.625 330.173 359.664 330.074C360.164 328.938 360.88 327.972 361.841 327.196C363.292 326.03 364.91 325.283 366.773 325.134C367.254 325.094 367.734 325.094 368.215 325.104C368.577 325.114 368.93 325.194 369.254 325.383C370.048 325.851 370.411 326.668 370.186 327.564C370.117 327.853 369.999 328.132 369.862 328.381C368.881 330.074 367.469 331.08 365.499 331.199C364.616 331.249 363.743 331.219 362.88 331.06C362.812 331.05 362.743 331.04 362.675 331.03C362.233 330.97 361.929 331.139 361.802 331.558C361.665 332.026 361.616 332.514 361.694 333.012C361.812 333.669 362.184 334.117 362.782 334.376C363.351 334.625 363.959 334.765 364.577 334.814C365.371 334.874 366.156 334.795 366.92 334.565C367.93 334.267 368.872 333.799 369.754 333.211C370.519 332.703 371.215 332.115 371.872 331.468C372.49 330.861 373.108 330.253 373.716 329.646C373.725 329.576 373.774 329.516 373.843 329.436ZM371.598 339.555C372.764 339.535 373.882 339.306 374.961 338.848C375.902 338.45 376.304 337.762 376.196 336.737C376.157 336.378 376.108 336.01 376.039 335.651C376 335.452 375.941 335.243 375.863 335.053C375.686 334.615 375.461 334.516 375.01 334.665C374.833 334.725 374.657 334.804 374.5 334.904C372.97 335.84 371.549 336.936 370.254 338.191C370.107 338.33 369.98 338.499 369.862 338.669C369.656 338.948 369.764 339.366 370.186 339.396C370.646 339.446 371.117 339.505 371.598 339.555ZM364.92 329.616C365.655 329.606 366.371 329.347 366.94 328.749C367.264 328.411 367.43 328.002 367.44 327.524C367.45 327.016 367.215 326.797 366.714 326.817C366.616 326.827 366.509 326.837 366.41 326.867C365.381 327.106 364.489 327.604 363.724 328.331C363.636 328.411 363.557 328.51 363.498 328.61C363.312 328.919 363.361 329.118 363.675 329.297C364.038 329.526 364.43 329.616 364.92 329.616Z" fill="#141313"/>

<path d="M305.636 324.626C305.796 324.476 305.896 324.387 305.996 324.297C306.917 323.48 308.029 323.072 309.231 322.913C309.772 322.843 310.313 322.963 310.813 323.212C311.324 323.471 311.665 323.869 311.885 324.387C312.075 324.845 312.145 325.323 312.195 325.811C312.356 327.384 312.145 328.908 311.594 330.391C310.813 332.502 309.652 334.374 307.989 335.918C306.887 336.944 305.535 337.382 304.043 337.362C303.172 337.352 302.401 337.043 301.72 336.495C301.479 336.296 301.259 336.067 301.029 335.858C300.939 335.778 300.858 335.689 300.788 335.619C300.598 335.599 300.498 335.699 300.398 335.798C300.197 335.998 300.007 336.207 299.807 336.396C299.637 336.555 299.456 336.685 299.206 336.685C298.735 336.685 298.345 336.316 298.305 335.828C298.285 335.579 298.365 335.35 298.455 335.121C298.946 333.817 299.436 332.502 299.947 331.208C301.339 327.663 302.891 324.187 304.484 320.732C305.726 318.053 306.988 315.385 308.219 312.706C309.451 310.047 310.663 307.369 311.875 304.7C312.045 304.322 312.235 303.943 312.396 303.555C312.516 303.276 312.706 303.087 312.997 303.007C313.337 302.918 313.678 302.848 314.018 302.778C314.048 302.768 314.088 302.778 314.118 302.778C314.709 302.778 314.849 302.947 314.699 303.505C314.529 304.142 314.278 304.76 314.018 305.377C313.127 307.498 312.245 309.629 311.354 311.76C310.162 314.588 308.981 317.426 307.649 320.194C307.028 321.479 306.417 322.783 305.806 324.078C305.746 324.217 305.646 324.367 305.636 324.626ZM302.461 332.413C302.481 332.672 302.491 332.93 302.521 333.199C302.541 333.408 302.591 333.618 302.641 333.817C302.741 334.215 302.901 334.574 303.182 334.882C303.663 335.41 304.213 335.5 304.834 335.151C305.125 334.982 305.375 334.763 305.596 334.514C306.717 333.299 307.659 331.965 308.4 330.481C309.001 329.266 309.421 328.001 309.622 326.657C309.672 326.318 309.692 325.96 309.652 325.621C309.571 325.034 309.121 324.755 308.55 324.885C308.41 324.914 308.28 324.964 308.149 325.024C307.839 325.183 307.518 325.323 307.218 325.512C305.535 326.587 304.213 328.021 303.202 329.724C302.711 330.541 302.471 331.447 302.461 332.413Z" fill="#141313"/>
<path d="M334.491 336.239C333.704 336.198 333.034 336.148 332.385 335.957C332.05 335.857 331.726 335.746 331.42 335.596C330.003 334.902 329.649 333.596 329.767 332.48C329.846 331.717 330.072 331.003 330.407 330.32C331.007 329.104 331.775 327.999 332.729 327.044C332.916 326.863 333.113 326.692 333.31 326.522C333.832 326.08 334.442 325.879 335.121 325.848C335.387 325.838 335.643 325.889 335.869 325.999C336.194 326.17 336.499 326.11 336.804 325.959C336.893 325.909 336.991 325.858 337.08 325.818C337.493 325.627 337.916 325.487 338.369 325.477C338.762 325.467 339.166 325.446 339.56 325.477C340.79 325.587 341.922 326.502 342.128 327.969C342.266 328.903 342.109 329.798 341.705 330.642C341.085 331.948 340.298 333.144 339.274 334.169C338.3 335.133 337.178 335.827 335.839 336.108C335.377 336.208 334.875 336.269 334.491 336.239ZM333.802 334.49C333.94 334.47 334.147 334.45 334.343 334.4C335.131 334.209 335.83 333.837 336.469 333.345C337.581 332.501 338.428 331.425 339.068 330.179C339.284 329.757 339.442 329.305 339.51 328.833C339.54 328.662 339.55 328.481 339.54 328.31C339.501 327.868 339.284 327.547 338.871 327.396C338.644 327.316 338.398 327.275 338.162 327.265C337.129 327.245 336.194 327.567 335.377 328.21C334.304 329.054 333.477 330.089 332.956 331.375C332.779 331.817 332.641 332.269 332.572 332.742C332.523 333.083 332.552 333.405 332.641 333.737C332.759 334.169 333.044 334.42 333.487 334.48C333.566 334.48 333.655 334.48 333.802 334.49Z" fill="#141313"/>
<defs>
<pattern id="pattern0" patternContentUnits="objectBoundingBox" width="1" height="1">
<use xlink:href="#image0_89_313" transform="matrix(0.00121865 0 0 0.0011754 -0.100336 0.0116321)"/>
</pattern>
<linearGradient id="paint0_linear_89_313" x1="24.2579" y1="196.978" x2="336.142" y2="114.738" gradientUnits="userSpaceOnUse">
<stop stop-color="#FFB147"/>
<stop offset="0.520264" stop-color="#FF6C63"/>
<stop offset="1" stop-color="#B86ADF"/>
</linearGradient>
<image id="image0_89_313" width="995" height="836" xlink:href="./about.png"/>
</defs>
</svg>
