<svg width="2295" height="1049" viewBox="0 0 2295 1049" fill="none" xmlns="http://www.w3.org/2000/svg">
    <style>
        @keyframes pulse {
        0% {
        -webkit-transform: scale(1);
        transform: scale(1);
        }
        70% {
        -webkit-transform: scale(0.98);
        transform: scale(0.98);
        }
        100% {
        -webkit-transform: scale(1);
        transform: scale(1);
        }
        }

        @keyframes top-bottom {
        0% {
        -webkit-transform: translate(0, 0);
        transform: translate(0, 0);
        }
        70% {
        -webkit-transform: translate(0, -20px);
        transform: translate(0, -20px);
        }
        100% {
        -webkit-transform: translate(0, 0);
        transform: translate(0, 0);
        }
        }

        @keyframes left {
        0% {
        -webkit-transform: translate(0, 0);
        transform: translate(0, 0);
        }
        70% {
        -webkit-transform: translate(-70px, 40.5px);
        transform: translate(-70px, 40.5px);
        }
        100% {
        -webkit-transform: translate(0, 0);
        transform: translate(0, 0);
        }
        }

        #circle { animation: top-bottom 3s ease-in-out infinite; }
        #cirle-1 { animation: pulse 3s ease-in-out infinite; }
        #left-right { animation: left 2s ease-in-out infinite; }
        #circle-3 { animation: pulse 1s ease-in-out infinite; }
        #circle-4 { animation: pulse 5s ease-in-out infinite; }
        #circle-5 { animation: pulse 4s ease-in-out infinite; }
        #shape { animation: left 3s ease-in-out infinite; }
    </style>
<path d="M10.1317 500.508C-12.3365 465 5.50346 417.101 34.9263 393.091C61.2864 371.577 98.0881 360.908 147.438 360.474C162.211 360.342 177.183 361.015 191.677 361.663C215.989 362.751 241.125 363.877 265.642 361.225C292.119 358.362 340.406 347.771 366.322 309.015C380.295 288.13 385.62 261.867 390.775 236.467C397.486 203.372 404.431 169.151 430.947 148.29C458.668 126.479 495.689 128.517 531.505 130.497C541.186 131.029 551.194 131.584 560.738 131.628C561.084 131.628 561.445 131.628 561.791 131.628C650.284 131.628 736.578 78.8385 776.793 0L779.437 1.35071C738.733 81.1547 651.367 134.593 561.787 134.598C561.431 134.598 561.079 134.598 560.723 134.598C551.101 134.554 541.055 133.998 531.335 133.462C496.089 131.516 459.624 129.502 432.786 150.626C407.123 170.814 400.597 202.992 393.682 237.057C388.473 262.74 383.084 289.291 368.79 310.663C342.201 350.419 292.948 361.254 265.959 364.175C241.218 366.852 215.965 365.72 191.546 364.628C177.085 363.98 162.098 363.307 147.468 363.443C98.8196 363.872 62.6227 374.322 36.8088 395.392C8.37113 418.603 -8.95191 464.785 12.6482 498.924L10.1366 500.513L10.1317 500.508Z" fill="url(#paint0_linear_579_254)" fill-opacity="0.1"/>
<path d="M1621.09 779.198C1600.9 754.647 1593.12 720.65 1599.76 685.921C1606.4 651.193 1626.16 622.458 1653.98 607.083C1684.69 590.114 1720.6 588.446 1751.66 589.056C1768.81 589.392 1786.23 590.46 1803.08 591.494C1834.96 593.449 1867.93 595.468 1900.18 592.576C1957.25 587.456 2003.48 565.938 2030.34 531.98C2054.91 500.938 2065.56 457.12 2060.34 408.602C2055.8 366.442 2040.94 326.95 2023.42 283.381C2006.53 241.353 1991.6 197.174 2010.31 159.501C2021.59 136.812 2043.37 120.867 2064.44 105.448C2091.05 85.9774 2116.18 67.5795 2120.26 37.2104L2123.2 37.6054C2118.96 69.2276 2093.33 87.9864 2066.2 107.842C2045.41 123.051 2023.92 138.782 2012.98 160.822C1994.8 197.394 2009.54 240.87 2026.18 282.274C2043.78 326.048 2058.72 365.745 2063.3 408.28C2068.6 457.574 2057.73 502.162 2032.68 533.818C2005.3 568.424 1958.34 590.338 1900.45 595.531C1867.98 598.442 1834.9 596.414 1802.9 594.454C1786.08 593.425 1768.69 592.357 1751.6 592.02C1720.94 591.421 1685.52 593.044 1655.42 609.677C1628.37 624.628 1609.15 652.617 1602.67 686.472C1596.2 720.328 1603.75 753.437 1623.37 777.306L1621.08 779.194L1621.09 779.198Z" fill="url(#paint1_linear_579_254)" fill-opacity="0.1"/>
<path id="shape" d="M1940.67 399.98C1884.5 452.868 1806.49 472.335 1735.09 451.281C1671.13 432.423 1553.46 343.827 1487.16 424.511C1454.57 464.168 1457.19 527.95 1441.46 580.386C1385.48 767.008 1190.71 686.632 1080.98 725.796C942.549 775.193 953.767 954.286 1081.85 1010.94C1140.69 1036.97 1204.99 1029.21 1266.32 1019.87C1524.68 980.544 1780.09 919.815 2030.1 838.28C2230.56 772.897 2295.13 682.666 2232.95 369.235C2217.49 291.286 2167.68 124.367 2071.6 171.622C2012.7 200.592 2030.71 315.207 1940.67 399.988L1940.67 399.98Z" fill="url(#paint2_linear_579_254)" fill-opacity="0.06"/>
    <g id="circle-5">

<path d="M443.713 157.6C416.414 157.6 394.206 135.392 394.206 108.093C394.206 80.7941 416.414 58.5996 443.713 58.5996C471.012 58.5996 493.206 80.8074 493.206 108.093C493.206 135.379 471.012 157.6 443.713 157.6ZM443.713 66.6739C420.869 66.6739 402.294 85.2622 402.294 108.093C402.294 130.924 420.869 149.512 443.713 149.512C466.557 149.512 485.132 130.924 485.132 108.093C485.132 85.2622 466.557 66.6739 443.713 66.6739Z" fill="#FF6C63"/>
    </g>
<path d="M2057.19 701.589C2038.42 701.589 2023.14 686.317 2023.14 667.543C2023.14 648.77 2038.41 633.498 2057.19 633.498C2075.97 633.498 2091.24 648.77 2091.24 667.543C2091.24 686.317 2075.97 701.589 2057.19 701.589ZM2057.19 636.472C2040.05 636.472 2026.11 650.413 2026.11 667.548C2026.11 684.683 2040.05 698.624 2057.19 698.624C2074.33 698.624 2088.27 684.683 2088.27 667.548C2088.27 650.413 2074.33 636.472 2057.19 636.472Z" fill="url(#paint3_radial_579_254)"/>
<g id="circle-4">

    <path d="M1935.3 350.478C1926.96 350.478 1920.17 343.69 1920.17 335.352C1920.17 327.013 1926.96 320.226 1935.3 320.226C1943.64 320.226 1950.42 327.008 1950.42 335.352C1950.42 343.695 1943.64 350.478 1935.3 350.478ZM1935.3 323.2C1928.59 323.2 1923.14 328.652 1923.14 335.352C1923.14 342.051 1928.59 347.508 1935.3 347.508C1942 347.508 1947.45 342.056 1947.45 335.352C1947.45 328.647 1942 323.2 1935.3 323.2Z" fill="url(#paint4_linear_579_254)" fill-opacity="0.2"/>
</g>
<g id="cirle-1">
    <g>

    <path d="M137.455 603.031C119.649 603.031 105.165 588.548 105.165 570.745C105.165 552.942 119.649 538.46 137.455 538.46C155.261 538.46 169.746 552.942 169.746 570.745C169.746 588.548 155.261 603.031 137.455 603.031ZM137.455 541.43C121.288 541.43 108.135 554.581 108.135 570.745C108.135 586.91 121.288 600.061 137.455 600.061C153.622 600.061 166.775 586.91 166.775 570.745C166.775 554.581 153.622 541.43 137.455 541.43Z" fill="#FF6C63"/></g>
    </g>
    <g id="left-right">

<path d="M685.206 325.245C687.321 334.728 706.924 348.006 768.42 325.245C845.291 296.794 828.126 358.795 913.206 333.297" stroke="#FF6C63" stroke-opacity="0.2" stroke-width="2"/>
    </g>
<path id="circle-3" d="M177.944 221.117C166.932 221.117 157.973 212.159 157.973 201.153C157.973 190.148 166.932 181.19 177.944 181.19C188.956 181.19 197.91 190.148 197.91 201.153C197.91 212.159 188.951 221.117 177.944 221.117ZM177.944 184.16C168.57 184.16 160.948 191.781 160.948 201.153C160.948 210.525 168.575 218.147 177.944 218.147C187.313 218.147 194.94 210.525 194.94 201.153C194.94 191.781 187.317 184.16 177.944 184.16Z" fill="url(#paint5_radial_579_254)"/>
<g id="circle-4">

    <path d="M2086.24 220.239C2080.08 220.239 2075.07 215.231 2075.07 209.077C2075.07 202.923 2080.08 197.911 2086.24 197.911C2092.4 197.911 2097.4 202.919 2097.4 209.077C2097.4 215.236 2092.39 220.239 2086.24 220.239ZM2086.24 200.88C2081.72 200.88 2078.04 204.557 2078.04 209.077C2078.04 213.597 2081.72 217.269 2086.24 217.269C2090.76 217.269 2094.43 213.593 2094.43 209.077C2094.43 204.562 2090.75 200.88 2086.24 200.88Z" fill="url(#paint6_linear_579_254)"/>
</g>
<defs>
<linearGradient id="paint0_linear_579_254" x1="389.717" y1="500.509" x2="389.717" y2="0.0048925" gradientUnits="userSpaceOnUse">
<stop stop-color="#E11E00"/>
<stop offset="0.37" stop-color="#EA3511"/>
<stop offset="1" stop-color="#FF6636"/>
</linearGradient>
<linearGradient id="paint1_linear_579_254" x1="1860.32" y1="779.198" x2="1860.32" y2="37.2153" gradientUnits="userSpaceOnUse">
<stop stop-color="#E11E00"/>
<stop offset="0.37" stop-color="#EA3511"/>
<stop offset="1" stop-color="#FF6636"/>
</linearGradient>
<linearGradient id="paint2_linear_579_254" x1="2198.49" y1="698.082" x2="1076.93" y2="806.007" gradientUnits="userSpaceOnUse">
<stop stop-color="#FFB147"/>
<stop offset="0.520264" stop-color="#FF6C63"/>
<stop offset="1" stop-color="#B86ADF"/>
</linearGradient>
<radialGradient id="paint3_radial_579_254" cx="0" cy="0" r="1" gradientUnits="userSpaceOnUse" gradientTransform="translate(2057.19 667.548) scale(34.0511 34.0457)">
<stop stop-color="#FEFEFE"/>
<stop offset="1" stop-color="#F6F6F6"/>
</radialGradient>
<linearGradient id="paint4_linear_579_254" x1="1935.3" y1="350.478" x2="1935.3" y2="320.226" gradientUnits="userSpaceOnUse">
<stop stop-color="#E11E00"/>
<stop offset="0.37" stop-color="#EA3511"/>
<stop offset="1" stop-color="#FF6636"/>
</linearGradient>
<radialGradient id="paint5_radial_579_254" cx="0" cy="0" r="1" gradientUnits="userSpaceOnUse" gradientTransform="translate(177.944 201.153) scale(19.9664 19.9632)">
<stop stop-color="#FEFEFE"/>
<stop offset="1" stop-color="#F6F6F6"/>
</radialGradient>
<linearGradient id="paint6_linear_579_254" x1="2086.24" y1="220.239" x2="2086.24" y2="197.911" gradientUnits="userSpaceOnUse">
<stop stop-color="#E11E00"/>
<stop offset="0.37" stop-color="#EA3511"/>
<stop offset="1" stop-color="#FF6636"/>
</linearGradient>
</defs>
</svg>
