<svg width="1170" height="750" viewBox="0 0 1170 750" fill="none" xmlns="http://www.w3.org/2000/svg">
    <style>
        @keyframes pulse {
        0% {
        -webkit-transform: scale(1);
        transform: scale(1);
        }
        70% {
        -webkit-transform: scale(0.8);
        transform: scale(0.8);
        }
        100% {
        -webkit-transform: scale(1);
        transform: scale(1);
        }
        }

        @keyframes top-bottom {
        0% {
        -webkit-transform: translate(0, 0);
        transform: translate(0, 0);
        }
        70% {
        -webkit-transform: translate(0, -50px);
        transform: translate(0, -50px);
        }
        100% {
        -webkit-transform: translate(0, 0);
        transform: translate(0, 0);
        }
        }

        @keyframes rotate {
        0% {
            transform: rotate(-3deg);
        }
        70% {
            transform: rotate(3deg);
        }
        100% {
            transform: rotate(-3deg);
        }
        }

        @keyframes rotate1 {
        0% {
        transform: rotate(3deg);
        }
        70% {
        transform: rotate(-3deg);
        }
        100% {
        transform: rotate(3deg);
        }
        }


        #jump-man { animation: top-bottom 2.5s ease-in-out infinite; }
        #four { animation: rotate1 2.5s ease-in-out infinite; }
        #four-2 { animation: rotate 3s ease-in-out infinite; }
    </style>
<g id="404 1" clip-path="url(#clip0_871_2)">
<g id="Group 1000005682">
<g id="four-2">
<path id="Vector" d="M887.008 522.558L871.283 476.275L845.026 485.251L791.394 327.352L731.603 347.792L731.783 348.329L712.498 431.856L685.059 550.684L701.065 586.145L757.524 566.841L778.076 559.811L800.956 551.984L819.636 606.993L879.428 586.553L860.747 531.544L887.008 522.558ZM778.288 508.074L764.725 512.712L738.75 521.595L756.479 433.272L758.146 425.943L785.231 505.697L778.288 508.074Z" fill="#9DC2E7"/>
<path id="Vector_2" opacity="0.25" d="M860.748 531.543L879.429 586.551L841.345 570.206L780.476 350.15L758.147 425.945L747.807 468.876L712.5 431.853L731.785 348.327L731.606 347.79L791.395 327.352L845.025 485.252L871.282 476.275L887.008 522.558L860.748 531.543Z" fill="#010101"/>
<path id="Vector_3" opacity="0.25" d="M778.074 559.809L757.521 566.839L760.542 524.341V516.593L764.723 512.712L767.413 510.219L778.284 508.074C778.286 508.074 777.612 539.29 778.074 559.809Z" fill="#010101"/>
<path id="Vector_4" d="M778.292 508.072C778.292 508.072 773.155 501.6 764.187 502.348C755.219 503.096 750.215 506.471 749.914 515.844C749.613 525.218 751.842 572.455 749.795 591.201C747.748 609.948 760.485 611.822 761.215 597.95C761.947 584.079 756.534 540.589 760.546 533.466C764.562 526.343 762.118 541.339 766.328 546.214C770.54 551.087 775.022 542.464 770.54 530.842C766.055 519.219 778.292 508.072 778.292 508.072Z" fill="url(#paint0_linear_871_2)"/>
<path id="Vector_5" d="M759.739 340.659C759.127 343.025 758.104 346.071 756.515 350.148C754.251 355.994 750.831 363.961 745.791 375.068C745.666 380.71 743.874 416.689 743.387 424.972C743.323 425.983 743.284 426.582 743.269 426.661C743.199 427.023 741.901 427.718 740.486 428.073C739.149 428.419 737.719 428.466 737.104 427.646C735.838 425.959 727.293 391.932 726.877 383.921C726.453 375.906 726.036 377.735 735.838 345.826C733.456 346.946 718.015 346.527 718.015 346.527C718.015 346.527 720.845 385.607 720.861 385.891C720.861 385.93 720.837 386.024 720.782 386.158C720.603 386.695 720.035 387.888 719.423 388.487C719.147 388.761 718.863 388.919 718.603 388.84C718.455 388.802 718.092 388.47 717.567 387.91C714.603 384.753 706.474 374.137 702.07 364.236C696.888 352.567 695.621 344.41 700.529 336.261C705.435 328.105 730.279 327.481 730.279 327.481C731.852 327.922 735.467 328.356 739.045 329.209C740.098 329.454 741.152 329.746 742.143 330.077C747.585 331.891 757.954 334.193 760.187 332.901C760.683 334.641 760.792 336.676 759.739 340.659Z" fill="#6561AB"/>
<path id="Vector_6" d="M780.33 313.491C779.347 314.05 767.931 313.625 760.217 310.673C760.256 312.038 760.429 314.184 760.626 316.622C760.934 320.464 761.288 325.032 761.2 328.361C761.153 330.736 760.879 332.486 760.217 332.889C760.209 332.898 760.202 332.905 760.185 332.905C758.999 333.591 755.523 333.26 751.702 332.534C749.233 332.061 746.623 331.422 744.398 330.782C743.588 330.545 742.827 330.31 742.143 330.08C737.772 328.613 732.316 328.052 730.278 327.484C729.767 327.342 729.476 327.208 729.459 327.05C729.397 326.276 731.354 324.526 732.274 322.695C732.383 322.467 732.532 322.127 732.698 321.693C733.445 319.776 734.616 316.147 735.182 313.836C735.519 312.472 735.646 311.573 735.348 311.729C734.437 312.218 729.041 322.34 728.412 322.34C728.193 322.34 727.107 321.717 725.818 320.84C723.648 319.364 720.92 317.196 720.857 316.163C720.841 316.02 720.881 315.902 720.983 315.807C722.249 314.608 731.911 298.302 735.417 294.823C737.06 293.181 739.003 292.196 740.583 291.613C742.351 290.951 743.689 290.8 743.689 290.8C745.772 290.728 747.87 291.006 749.915 291.525C756.865 293.269 763.242 297.672 766.875 299.848C771.567 302.657 774.791 301.884 775.978 302.586C777.176 303.298 781.303 312.923 780.33 313.491Z" fill="#F26647"/>
<path id="Vector_7" d="M761.202 328.361C754.74 328.44 740.375 327.863 732.701 321.695C733.448 319.778 734.62 316.149 735.186 313.838C735.186 313.838 750.351 318.452 760.628 316.622C760.935 320.464 761.289 325.032 761.202 328.361Z" fill="#F69181"/>
<path id="Vector_8" opacity="0.25" d="M749.92 291.529C749.67 294.226 748.718 297.13 745.792 296.901C741.665 296.579 740.776 293.193 740.588 291.616C742.356 290.954 743.694 290.803 743.694 290.803C745.776 290.731 747.875 291.007 749.92 291.529Z" fill="#010101"/>
<path id="Vector_9" d="M748.172 285.65C748.172 285.65 747.473 282.771 746.065 281.288C744.926 283.15 740.531 284.104 737.142 284.35C735.538 284.468 734.154 284.428 733.455 284.247C731.073 274.962 738.501 270.89 742.638 270.607C746.765 270.322 750.484 273.407 749.361 278.117C753.07 281.786 748.172 285.65 748.172 285.65Z" fill="#321212"/>
<path id="Vector_10" d="M748.173 285.65C747.961 286.266 747.631 287.347 747.065 288.356H747.056C746.13 290.036 744.573 291.527 741.876 290.431C741.782 290.391 741.688 290.352 741.601 290.305C739.33 289.271 738.15 287.26 737.553 285.674C737.365 285.177 737.232 284.72 737.145 284.35C740.532 284.104 744.929 283.15 746.068 281.288C746.131 281.36 746.195 281.431 746.256 281.501C747.537 283.032 748.173 285.65 748.173 285.65Z" fill="url(#paint1_linear_871_2)"/>
<path id="Vector_11" d="M747.819 292.821C747.404 295.424 743.127 295.283 742.662 293.595C742.417 292.72 742.142 291.876 741.93 291.26C741.742 290.685 741.6 290.312 741.6 290.312V290.305C741.687 290.352 741.781 290.391 741.875 290.431C744.572 291.527 746.128 290.038 747.055 288.356H747.063C746.773 288.94 747.551 289.674 747.811 291.054C747.907 291.551 747.93 292.136 747.819 292.821Z" fill="url(#paint2_linear_871_2)"/>
<path id="Vector_12" d="M725.609 395.874C725.192 399.108 708.517 411.761 708.8 409.513C709.074 407.264 717.567 387.914 717.567 387.914C718.093 388.473 718.456 388.806 718.603 388.844C719.444 389.089 720.513 386.942 720.78 386.162C723.022 388.986 725.986 392.986 725.609 395.874Z" fill="#262166"/>
<path id="Vector_13" d="M737.099 453.99C733.176 445.548 737.099 427.647 737.099 427.647C738.358 429.336 743.122 427.364 743.262 426.662C743.279 426.584 743.317 425.983 743.38 424.974C743.38 424.974 744.01 433.55 744.757 440.815C745.504 448.081 741.024 462.422 737.099 453.99Z" fill="#262166"/>
<path id="Vector_14" opacity="0.25" d="M735.835 345.827C733.453 346.948 718.012 346.529 718.012 346.529C718.012 346.529 720.842 385.609 720.857 385.892C720.857 385.932 720.833 386.026 720.779 386.16C720.599 386.697 720.031 387.89 719.419 388.488C716.574 375.116 710.898 349.477 715.424 345.076C721.22 339.451 736.912 337.953 737.14 339.183C737.369 340.422 735.835 345.827 735.835 345.827Z" fill="#010101"/>
<path id="Vector_15" d="M724.727 327.359C724.499 327.833 724.381 328.227 724.453 328.488C724.79 329.797 722.998 346.198 723.651 347.886C724.303 349.575 724.68 354.915 724.303 358.292C723.925 361.669 716.922 363.728 716.922 360.824C716.922 357.914 717.763 351.075 718.045 348.448C718.327 345.829 715.711 326.848 716.41 324.221C716.867 322.508 718.62 319.606 719.783 317.8C720.403 316.83 720.86 316.166 720.86 316.166C720.964 317.813 727.843 322.343 728.415 322.343C728.415 322.343 725.647 325.451 724.727 327.359Z" fill="url(#paint3_linear_871_2)"/>
<path id="Vector_16" opacity="0.25" d="M759.737 340.659C756.647 340.431 753.172 339.073 750.751 336.635C747.936 333.811 743.241 331.192 739.043 329.212C740.096 329.458 741.15 329.749 742.142 330.08C747.583 331.894 757.952 334.197 760.185 332.905C760.681 334.641 760.791 336.676 759.737 340.659Z" fill="#010101"/>
<path id="Vector_17" opacity="0.25" d="M756.517 350.15C754.253 355.996 750.833 363.963 745.793 375.07C745.668 380.712 743.876 416.691 743.389 424.974C743.325 425.985 743.286 426.583 743.271 426.662C743.201 427.024 741.903 427.719 740.488 428.075C740.81 415.941 740.386 389.53 742.431 381.673C744.873 372.27 755.833 351.443 756.517 350.15Z" fill="#010101"/>
<path id="Vector_18" opacity="0.25" d="M744.399 330.782C743.588 330.545 742.827 330.31 742.143 330.08C737.772 328.613 732.317 328.052 730.278 327.484C729.767 327.342 729.476 327.208 729.459 327.05C729.398 326.276 731.354 324.526 732.274 322.695C733.186 320.864 736.26 311.233 735.349 311.729C734.437 312.218 729.042 322.34 728.413 322.34C728.194 322.34 727.108 321.717 725.818 320.84C725.952 320.612 726.101 320.382 726.266 320.138C729.625 315.169 735.137 308.985 736.071 303.643C736.818 299.707 737.941 301.955 737.752 307.02C737.584 311.566 737.339 325.482 744.399 330.782Z" fill="#010101"/>
<path id="Vector_19" opacity="0.25" d="M760.218 332.889C760.209 332.898 760.202 332.905 760.185 332.905C759 333.591 755.524 333.26 751.703 332.534C758.535 325.664 754.807 307.053 755.878 308.009C757.135 309.129 760.216 310.675 760.216 310.675C760.36 315.739 762.397 331.556 760.218 332.889Z" fill="#010101"/>
<path id="Vector_20" opacity="0.25" d="M728.416 322.342C728.416 322.342 725.649 325.451 724.729 327.359C724.705 326.94 724.676 326.554 724.635 326.208C724.423 324.197 721.302 319.824 719.783 317.798C720.404 316.828 720.861 316.164 720.861 316.164C720.965 317.813 727.843 322.342 728.416 322.342Z" fill="#010101"/>
<path id="Vector_21" opacity="0.25" d="M746.256 281.501C744.575 285.232 739.629 285.665 737.553 285.673C737.365 285.176 737.232 284.72 737.145 284.349C740.532 284.104 744.929 283.15 746.068 281.288C746.131 281.36 746.195 281.431 746.256 281.501Z" fill="#010101"/>
<path id="Vector_22" opacity="0.25" d="M747.813 291.055C747.498 291.3 747.115 291.482 746.635 291.592C744.379 292.105 742.79 291.664 741.934 291.261C741.745 290.686 741.604 290.314 741.604 290.314V290.307C741.691 290.353 741.785 290.393 741.879 290.432C744.576 291.528 746.132 290.039 747.059 288.358H747.067C746.777 288.941 747.555 289.674 747.813 291.055Z" fill="#010101"/>
<path id="Vector_23" d="M770 -398L770 350" stroke="#141313" stroke-width="0.9195" stroke-miterlimit="10"/>
<path id="Vector_24" d="M784.881 308.474C784.866 308.568 784.844 308.662 784.826 308.75C783.9 312.986 780.519 313.436 779.881 313.16C779.245 312.883 777.562 310.943 776.091 304.105C776.059 303.969 776.036 303.835 776.004 303.695C776.004 303.695 772.828 295.522 771.335 291.592C767.648 289.399 766.949 290.292 766.429 287.759C765.917 285.226 767.554 281.952 768.49 281.479C769.425 281.014 773.623 284.95 774.189 286.402C774.747 287.852 785.723 303.976 784.881 308.474Z" fill="url(#paint4_linear_871_2)"/>
<path id="Vector_25" opacity="0.25" d="M784.827 308.75C783.9 312.986 780.519 313.436 779.881 313.16C779.245 312.883 777.563 310.943 776.092 304.105C777.027 306.004 778.467 308.467 780.047 309.484C781.783 310.594 783.734 310.241 784.827 308.75Z" fill="#010101"/>
</g>
<path id="Vector_26" d="M661.038 530.218L652.028 484.046C645.362 449.896 632.507 424.984 613.464 409.299C594.413 393.624 570.884 388.536 542.87 394.043C514.856 399.549 494.99 413.102 483.282 434.691C471.568 456.291 469.052 484.225 475.742 518.495L484.784 564.842C491.428 598.873 504.267 623.73 523.317 639.405C531.359 646.023 540.213 650.756 549.875 653.591C563.091 657.48 577.825 657.819 594.075 654.63C602.496 652.981 610.186 650.591 617.127 647.466C633.196 640.241 645.319 629.094 653.497 614.011C665.213 592.413 667.722 564.478 661.038 530.218ZM604.792 592.192C601.711 601.66 595.193 607.371 585.239 609.327C574.932 611.353 566.557 608.45 560.096 600.61C555.693 595.268 551.927 587.341 548.804 576.826C548.804 576.817 548.804 576.808 548.804 576.808C548.797 576.793 548.797 576.776 548.789 576.754C547.342 571.879 546.037 566.443 544.873 560.456L532.225 495.635C529.261 478.61 529.252 465.468 532.192 456.205C535.134 446.946 541.642 441.32 551.713 439.348C559.395 437.833 566.022 439.135 571.588 443.238H571.597C573.492 444.642 575.267 446.361 576.919 448.413C583.421 456.483 588.452 469.643 592.006 487.873L604.247 550.596C607.694 568.857 607.876 582.716 604.792 592.192Z" fill="#FF6C63"/>
<path id="Vector_27" opacity="0.25" d="M609.312 600.854C611.908 604.862 615.358 632.109 617.128 647.468C610.185 650.593 602.494 652.983 594.075 654.632C577.826 657.819 563.091 657.481 549.875 653.592C550.416 652.369 550.912 651.09 551.336 649.781C559.584 624.497 549.277 578.878 548.805 576.826C551.926 587.341 555.691 595.268 560.097 600.61C566.558 608.45 574.932 611.353 585.239 609.327C595.192 607.369 601.711 601.658 604.793 592.192C607.876 582.718 607.693 568.857 604.251 550.594L592.009 487.871C588.456 469.641 583.423 456.482 576.923 448.412C575.271 446.361 573.496 444.642 571.601 443.236C591.484 447.149 607.633 508.918 614.362 538.715C621.083 568.517 621.649 582.299 609.312 600.854Z" fill="#010101"/>
<path id="Vector_28" d="M553.193 588.945C553.193 588.945 554.483 592.327 561.255 594.201C568.029 596.075 574.38 585.563 578.864 588.945C583.348 592.327 590.524 606.345 596.838 604.21C603.151 602.075 605.019 635.817 602.031 639.566C599.042 643.316 596.892 613.013 589 613.919C581.106 614.821 587.085 637.691 582.601 641.816C578.117 645.941 579.986 631.694 575.129 629.068C570.271 626.445 580.36 743.791 572.885 745.665C565.412 747.54 560.555 740.416 563.545 715.298C566.534 690.181 562.796 603.575 558.312 599.076C553.831 594.577 554.112 593.733 553.193 588.945Z" fill="#6561AB"/>
<path id="Vector_29" d="M551.332 0V409.371" stroke="#141313" stroke-width="0.9195" stroke-miterlimit="10"/>
<g id="jump-man">
<g id="Group 1000005681">
<g id="Group 1000005680">
<g id="Group 1000005679">
<g id="Group 1000005678">
<g id="Group 1000005677">
<g id="Group 1000005676">
<path id="Vector_30" d="M648.33 251.066C648.33 251.066 642.377 234.687 642.866 233.421C643.357 232.156 649.897 229.766 650.377 230.468C650.854 231.172 654.988 243.895 654.287 244.808C653.586 245.723 648.33 251.066 648.33 251.066Z" fill="#262166"/>
<path id="Vector_31" d="M549.27 229.588C549.27 229.588 552.904 231.1 554.52 235.038C556.134 238.974 555.505 224.775 555.505 224.775L553.754 223.158L549.27 229.588Z" fill="url(#paint5_linear_871_2)"/>
<path id="Vector_32" d="M547.377 229.588C547.377 229.588 551.931 232.997 552.703 233.208C553.472 233.419 554.96 224.491 554.288 223.086C553.612 221.679 551.145 220.274 549.542 221.188C547.938 222.103 546.632 229.035 547.377 229.588Z" fill="url(#paint6_linear_871_2)"/>
<path id="Vector_33" d="M559.499 230.609C559.499 230.609 555.872 222.173 554.288 220.698C552.703 219.222 549.762 221.12 549.55 221.892C549.338 222.664 553.069 223.227 554.288 224.493C555.506 225.76 552.212 235.108 555.366 238.413C558.518 241.716 559.499 230.609 559.499 230.609Z" fill="url(#paint7_linear_871_2)"/>
<path id="Vector_34" d="M643.85 252.962C643.85 252.962 647.072 251.205 647.773 250.29C648.472 249.376 647.212 245.932 649.243 242.769C651.275 239.605 655.619 240.52 656.669 244.315C657.72 248.111 654.989 252.892 653.727 254.367C652.465 255.843 643.85 262.029 643.85 262.029" fill="url(#paint8_linear_871_2)"/>
<path id="Vector_35" d="M646.156 260.296C646.062 260.857 645.488 261.818 644.373 263.129C640.284 267.925 629.017 277.313 608.71 288.042C608.31 289.683 607.995 291.356 607.759 293.027C607.005 298.367 607.018 303.763 607.271 308.614C607.333 309.862 607.412 311.077 607.499 312.243C607.87 317.355 608.373 321.576 608.239 324.021C608.176 325.094 607.988 325.82 607.627 326.142C607.171 326.544 606.69 326.908 606.187 327.232C596.044 333.764 577.584 324.006 574.596 321.07C574.36 320.842 574.218 320.651 574.189 320.518C573.669 318.546 575.682 316.439 576.806 313.062C576.994 312.487 577.183 311.2 577.372 309.441C577.907 304.242 578.37 294.942 578.536 287.944C578.63 283.478 578.606 279.953 578.403 279.022C578.394 279.006 578.394 278.989 578.394 278.989C577.837 276.693 560.83 250.913 555.728 241.778C554.793 240.113 554.259 239.001 554.288 238.686C554.476 236.626 558.399 229.315 559.241 229.409C559.383 229.425 559.903 230.08 560.688 231.168C564.628 236.659 575.225 253.257 577.175 255.371C579 257.351 588.284 267.158 592.263 271.362C593.387 272.537 594.086 273.278 594.086 273.278C596.241 273.239 598.401 273.042 600.564 272.704C619.677 269.745 638.459 256.318 643.374 252.586C644.183 251.972 644.617 251.624 644.617 251.624C644.617 251.624 646.581 257.67 646.156 260.296Z" fill="#F47920"/>
<path id="Vector_36" d="M598.464 281.76C591.945 282.817 591.926 274.306 592.265 271.363C593.388 272.539 594.088 273.28 594.088 273.28C596.242 273.241 598.402 273.043 600.566 272.705C601.376 276.058 600.726 281.398 598.464 281.76Z" fill="#C54527"/>
<path id="Vector_37" d="M605.063 263.515C603.797 264.28 602.145 264.541 600.039 263.995C598.419 263.585 596.523 262.695 594.313 261.186C594.313 261.186 592.567 263.294 592.427 267.158C587.803 263.151 586.679 259.143 590.602 257.667C588.991 250.639 592.427 249.163 598.166 248.816C603.914 248.461 605.242 254.369 608.676 254.228C608.885 257.379 607.996 261.771 605.063 263.515Z" fill="#262166"/>
<path id="Vector_38" d="M605.06 263.515C604.997 264.083 604.903 264.737 604.77 265.44C603.998 269.551 601.985 275.286 598.952 274.97C598.794 274.963 598.63 274.931 598.456 274.876C595.728 274.016 594.085 271.358 593.228 269.402C592.662 268.132 592.426 267.161 592.426 267.161C592.472 265.939 592.675 264.889 592.937 264.03C593.495 262.175 594.312 261.19 594.312 261.19C596.522 262.696 598.416 263.589 600.038 263.999C602.143 264.541 603.795 264.28 605.06 263.515Z" fill="url(#paint9_linear_871_2)"/>
<path id="Vector_39" d="M598.953 277.391C598.921 278.883 598.717 280.049 597.727 280.12C595.721 280.262 593.057 277.635 593.199 274.78C593.245 273.81 593.262 272.777 593.262 271.83C593.262 270.874 593.245 270.008 593.23 269.4C594.086 271.357 595.73 274.015 598.457 274.874C598.632 274.929 598.796 274.962 598.953 274.969C598.945 275.799 598.977 276.635 598.953 277.391Z" fill="url(#paint10_linear_871_2)"/>
<path id="Vector_40" d="M646.156 260.296C646.062 260.857 645.487 261.818 644.372 263.129C644.425 259.776 643.695 254.688 643.373 252.588C644.182 251.974 644.617 251.625 644.617 251.625C644.617 251.625 646.58 257.67 646.156 260.296Z" fill="#C54527"/>
<path id="Vector_41" d="M560.684 231.172C557.698 233.735 556.241 239.322 555.724 241.783C554.789 240.118 554.255 239.006 554.284 238.691C554.472 236.632 558.395 229.32 559.237 229.415C559.381 229.428 559.899 230.082 560.684 231.172Z" fill="#C54527"/>
<path id="Vector_42" d="M607.5 312.243C600.819 313.213 588.246 314.074 577.373 309.443C577.908 304.244 578.372 294.944 578.538 287.946C583.923 290.233 595.55 294.304 607.762 293.025C606.809 299.741 607.076 306.548 607.5 312.243Z" fill="#FCAF17"/>
<path id="Vector_43" opacity="0.25" d="M606.188 327.234C595.258 334.271 574.675 322.398 574.19 320.519C573.67 318.548 575.683 316.441 576.806 313.064C576.994 312.489 577.184 311.202 577.372 309.443C577.907 304.244 578.371 294.944 578.537 287.946C578.631 283.48 578.607 279.955 578.403 279.023C578.639 279.749 582.335 291.503 584.228 302.941C586.193 314.75 585.769 320.377 591.517 324.171C594.88 326.388 601.022 327.556 606.188 327.234Z" fill="#010101"/>
<path id="Vector_44" d="M631.163 359.695C631.163 364.57 613.598 391.582 609.961 397.126C609.544 397.766 609.308 398.122 609.308 398.122C609.308 398.122 607.043 397.861 605.179 397.229C603.883 396.778 602.775 396.164 602.775 395.313C602.775 395.138 602.807 394.87 602.862 394.515C603.483 390.752 607.343 377.136 612.297 359.134C609.687 355.948 591.377 343.76 591.377 343.76C591.377 343.76 591.368 343.775 591.36 343.806C590.566 345.644 565.149 404.62 562.262 410.119C562.159 410.317 562.087 410.442 562.041 410.498C560.736 412.187 555.319 412.369 554.942 408.81C554.942 408.803 554.942 408.803 554.942 408.795C553.386 393.887 566.2 348.918 572.169 329.032C573.238 325.466 574.086 322.705 574.597 321.072C577.585 324.006 596.045 333.764 606.188 327.234C606.691 326.909 607.172 326.547 607.628 326.144C607.989 325.821 608.177 325.096 608.24 324.023C608.429 324.227 608.627 324.449 608.822 324.686C615.895 332.802 631.163 355.001 631.163 359.695Z" fill="#9DC2E7"/>
<path id="Vector_45" d="M564.053 418.371C563.354 421.882 544.854 432.287 546.538 425.991C547.906 420.887 553.047 411.981 554.942 408.795C554.942 408.803 554.942 408.803 554.942 408.81C555.32 412.369 560.737 412.189 562.04 410.498C562.087 410.444 562.158 410.318 562.261 410.119C563.205 412.834 564.51 416.099 564.053 418.371Z" fill="#262166"/>
<path id="Vector_46" d="M616.039 415.277C614.631 415.981 596.422 408.951 596.839 406.56C597.263 404.17 602.86 394.515 602.86 394.515C602.806 394.87 602.773 395.138 602.773 395.313C602.773 397.37 609.306 398.122 609.306 398.122C609.306 398.122 609.542 397.766 609.959 397.126C610.772 404.424 617.352 414.617 616.039 415.277Z" fill="#262166"/>
<path id="Vector_47" opacity="0.25" d="M588.993 341.747C588.993 341.747 568.815 381.506 561.248 408.795" stroke="#010101" stroke-width="0.4597" stroke-miterlimit="10"/>
<path id="Vector_48" opacity="0.25" d="M593.756 341.747C593.756 341.747 616.174 356.509 617.017 358.899C617.857 361.289 605.386 394.516 605.386 394.516" stroke="#010101" stroke-width="0.4597" stroke-miterlimit="10"/>
<path id="Vector_49" opacity="0.25" d="M608.819 324.684C606.352 334.576 592.057 331.887 584.746 329.986C580.493 328.881 575.617 328.841 572.168 329.03C573.237 325.465 574.085 322.704 574.596 321.07C577.584 324.004 596.045 333.763 606.188 327.232C606.69 326.908 607.171 326.546 607.627 326.142C607.988 325.82 608.176 325.094 608.24 324.021C608.426 324.227 608.623 324.449 608.819 324.684Z" fill="#010101"/>
<path id="Vector_50" opacity="0.25" d="M605.179 397.231C603.883 396.78 602.775 396.165 602.775 395.314C602.775 395.139 602.807 394.872 602.862 394.516C603.483 390.753 607.343 377.138 612.297 359.136C609.687 355.95 591.377 343.761 591.377 343.761C591.377 343.761 592.87 338.705 594.553 338.327C596.234 337.956 615.662 354.728 617.809 358.199C619.702 361.248 606.471 386.146 605.179 397.231Z" fill="#010101"/>
<path id="Vector_51" opacity="0.25" d="M605.064 263.514C605.001 264.082 604.907 264.736 604.774 265.439C599.876 267.941 595.071 262.308 594.498 262.379C594.168 262.418 593.49 263.271 592.941 264.027C593.499 262.173 594.316 261.188 594.316 261.188C596.526 262.694 598.421 263.586 600.042 263.997C602.147 264.54 603.799 264.28 605.064 263.514Z" fill="#010101"/>
<path id="Vector_52" opacity="0.25" d="M598.954 277.391C595.722 276.602 593.937 273.352 593.263 271.83C593.263 270.874 593.246 270.008 593.23 269.4C594.087 271.357 595.731 274.015 598.458 274.874C598.633 274.929 598.797 274.962 598.954 274.969C598.946 275.799 598.978 276.635 598.954 277.391Z" fill="#010101"/>
<path id="Vector_53" opacity="0.25" d="M607.761 293.027C607.007 298.367 607.021 303.763 607.274 308.614C606 303.226 604.884 297.435 606.188 294.084C608.435 288.31 608.68 288.042 608.712 288.042C608.31 289.683 607.996 291.354 607.761 293.027Z" fill="#010101"/>
</g>
</g>
</g>
</g>
</g>
</g>
</g>
<g id="four">
<path id="Vector_54" d="M230.75 438.087C229.214 438.087 228.077 438.003 227.586 437.797C227.013 437.555 225.266 436.824 210.008 409.496L212.751 407.955C218.449 418.16 227.09 433.013 228.92 434.912C230.581 435.182 239.706 434.544 247.791 433.729L248.108 436.869C243.017 437.38 235.205 438.087 230.75 438.087Z" fill="#F26647"/>
<path id="Vector_55" d="M286.057 451.339V452.254C286.057 452.254 285.225 469.6 272.282 468.852C272.25 468.852 272.219 468.843 272.187 468.843C264.183 468.323 254.276 464.575 247.634 461.792C243.46 460.04 240.566 458.668 240.245 458.723C239.403 458.856 250.047 503.287 249.905 505.818C249.89 506.157 249.811 506.519 249.693 506.892C248.939 509.297 246.306 512.184 244.725 512.422C244.559 512.446 244.223 512.137 243.744 511.537C238.931 505.534 219.882 470.667 219.362 459.282C218.805 446.771 225.108 439.237 233.656 437.8C239.961 436.743 258.398 439.291 267.634 440.704C270.914 441.208 273.028 441.563 273.028 441.563L286.057 451.339Z" fill="#0A2533"/>
<path id="Vector_56" opacity="0.25" d="M249.907 505.818C249.892 506.157 249.813 506.519 249.695 506.892C248.941 509.297 246.307 512.184 244.727 512.422C244.561 512.446 244.224 512.137 243.745 511.537C250.523 501.936 232.807 455.196 236.66 455.063C238.562 454.999 242.769 458.242 247.636 461.792C243.462 460.04 240.568 458.668 240.247 458.723C239.403 458.856 250.049 503.285 249.907 505.818Z" fill="#010101"/>
<path id="Vector_57" opacity="0.25" d="M286.056 451.339V452.254C286.056 452.254 285.223 469.6 272.281 468.852C274.827 466.81 275.299 463.211 275.109 458.856C274.891 453.815 270.242 445.186 267.633 440.705C270.913 441.21 273.027 441.565 273.027 441.565L286.056 451.339Z" fill="#010101"/>
<path id="Vector_58" d="M258.518 394.381C258.087 395.06 257.803 395.628 257.803 396.061C257.803 396.061 257.788 396.035 257.757 395.982C257.607 395.714 257.065 394.775 256.367 393.686C255.187 391.857 253.559 389.583 252.576 389.307C250.995 388.873 246.79 394.204 241.106 394.631C240.728 394.666 240.352 394.671 239.965 394.657C233.708 394.372 227.071 385.467 232.401 374.974C234.265 378.816 238.094 378.91 238.094 378.91C238.094 378.91 235.758 378.438 235.673 375.533C242.488 376.748 246.036 371.597 251.924 373.474C257.803 375.343 257.436 378.908 257.436 378.908C257.436 378.908 261.916 377.126 263.315 382.75C264.439 387.249 260.249 391.683 258.518 394.381Z" fill="#0A2533"/>
<path id="Vector_59" d="M257.755 395.984C257.355 397.403 256.59 398.95 255.561 400.203C254.313 401.735 252.661 402.854 250.797 402.808C246.819 402.713 242.863 397.356 241.104 394.633C246.788 394.208 250.993 388.876 252.573 389.309C253.557 389.585 255.183 391.857 256.365 393.688C257.061 394.777 257.605 395.716 257.755 395.984Z" fill="url(#paint11_linear_871_2)"/>
<path id="Vector_60" d="M263.503 396.526C263.503 396.526 260.515 403.374 259.391 401.874C258.786 401.063 257.04 400.527 255.562 400.201C256.594 398.949 257.356 397.401 257.757 395.982C257.789 396.035 257.803 396.061 257.803 396.061C257.803 395.627 258.087 395.059 258.518 394.381C260.688 396.023 263.503 396.526 263.503 396.526Z" fill="url(#paint12_linear_871_2)"/>
<path id="Vector_61" d="M284.516 454.361C279.752 453.659 266.866 439.6 266.866 433.55C266.866 432.697 266.772 431.75 266.615 430.719C265.625 424.423 262.001 415.193 260.491 408.669C258.738 401.08 261.26 398.24 261.26 398.24C267.126 388.119 280.4 408.18 287.971 424.265L287.979 424.274C290.526 429.693 292.21 434.725 292.366 438.096C292.908 449.484 289.281 455.062 284.516 454.361Z" fill="#5462AD"/>
<path id="Vector_62" opacity="0.25" d="M284.518 454.361C279.754 453.659 266.868 439.6 266.868 433.55C266.868 432.697 266.774 431.75 266.617 430.719L266.586 428.021L271.255 403.47C271.255 403.47 277.702 411.163 278.731 424.936C279.754 438.71 294.868 441.708 287.98 424.274C290.526 429.693 292.211 434.725 292.366 438.096C292.91 449.484 289.283 455.062 284.518 454.361Z" fill="#010101"/>
<path id="Vector_63" d="M274.523 423.996C274.398 424.104 274.178 424.191 273.887 424.272C271.678 424.885 265.239 424.792 262.557 424.263C262.157 424.185 261.834 424.09 261.631 423.996C259.862 423.152 261.63 421.086 261.073 417.432C260.514 413.772 259.113 403.091 264.531 399.808C270.198 396.376 274.333 409.368 274.523 415.838C274.713 422.309 275.742 422.963 274.523 423.996Z" fill="#5462AD"/>
<path id="Vector_64" d="M273.887 424.272C273.887 424.272 273.628 440.072 270.624 447.528C270.624 447.537 270.624 447.536 270.624 447.543C269.688 449.863 268.486 451.37 266.937 451.339C260.419 451.197 245.781 435.664 244.445 435.096C243.116 434.535 236.457 435.522 236.669 434.535C236.881 433.55 239.475 431.371 242.273 430.322C245.081 429.267 244.585 429.897 262.589 438.197C262.345 436.603 262.448 429.708 262.526 425.803C262.535 425.211 262.552 424.691 262.559 424.265C265.24 424.792 271.677 424.886 273.887 424.272Z" fill="url(#paint13_linear_871_2)"/>
<path id="Vector_65" d="M255.275 516.499C255.732 519.315 236.878 538.571 237.859 533.514C238.834 528.45 244.724 512.42 244.724 512.42C246.304 512.182 248.938 509.297 249.692 506.89C251.234 509.572 254.89 514.164 255.275 516.499Z" fill="#5462AD"/>
<path id="Vector_66" opacity="0.25" d="M272.282 457.36C272.282 457.36 242.018 451.658 236.039 454.416C230.06 457.171 246.977 505.16 246.977 505.16" stroke="white" stroke-width="0.4597" stroke-miterlimit="10"/>
<path id="Vector_67" opacity="0.25" d="M270.627 447.528C271.201 444.355 271.634 435.134 270.045 431.489C268.976 429.027 264.998 426.913 262.527 425.803C262.536 425.211 262.553 424.691 262.56 424.265C265.241 424.794 271.68 424.886 273.889 424.274C273.889 424.272 273.631 440.072 270.627 447.528Z" fill="#010101"/>
<path id="Vector_68" d="M450.455 346.821L389.965 336.391L389.871 336.935L256.284 487.847L253.525 525.571L272.686 528.876L305.849 534.595L350.363 542.272L354.594 542.998L351.41 561.607L349.932 570.216L345.065 598.654L384.438 605.445L405.558 609.083L415.085 553.427L441.658 558.002L449.677 511.166L423.104 506.591L450.455 346.821ZM374.941 424.154L362.604 496.162L347.848 493.614L315.572 488.054L333.443 466.652L337.532 461.753L371.606 420.945L376.426 415.471L374.941 424.154Z" fill="#6561AB"/>
<path id="Vector_69" opacity="0.25" d="M350.362 542.272L305.848 534.595C311.091 517.216 317.634 493.266 315.573 488.053L347.848 493.612C349.916 497.07 351.551 501.825 351.992 508.35C352.777 519.9 351.062 531.694 350.362 542.272Z" fill="#010101"/>
<path id="Vector_70" d="M317.499 488.389C317.499 488.389 322.353 481.632 333.282 483.742C344.212 485.853 345.053 499.35 340.289 514.253C335.524 529.156 334.404 581.174 336.644 598.045C338.888 614.915 337.486 622.79 332.162 623.351C326.838 623.914 324.314 603.105 327.398 588.485C330.481 573.864 330.2 560.366 325.156 562.616C320.111 564.867 324.314 570.49 321.792 575.551C319.269 580.611 311.704 577.519 311.984 567.958C312.265 558.397 327.5 496.265 317.499 488.389Z" fill="#9DC2E7"/>
<path id="Vector_71" opacity="0.25" d="M423.104 506.591L449.677 511.166L441.658 558.002L415.085 553.427L405.556 609.083L384.438 605.444L421.556 373.059L450.455 346.821L423.104 506.591Z" fill="#010101"/>
<path id="Vector_72" d="M405 -388L405 362" stroke="#141313" stroke-width="0.9195" stroke-miterlimit="10"/>
</g>
<path id="Vector_73" d="M506.742 289.991C512.778 289.991 517.671 285.082 517.671 279.025C517.671 272.968 512.778 268.059 506.742 268.059C500.706 268.059 495.812 272.968 495.812 279.025C495.812 285.082 500.706 289.991 506.742 289.991Z" fill="#F47920"/>
<path id="Vector_74" d="M887.01 429.351C893.046 429.351 897.939 424.441 897.939 418.385C897.939 412.328 893.046 407.418 887.01 407.418C880.973 407.418 876.08 412.328 876.08 418.385C876.08 424.441 880.973 429.351 887.01 429.351Z" fill="#6561AB"/>
<path id="Vector_75" d="M315.574 349.285C321.61 349.285 326.503 344.375 326.503 338.318C326.503 332.262 321.61 327.352 315.574 327.352C309.538 327.352 304.645 332.262 304.645 338.318C304.645 344.375 309.538 349.285 315.574 349.285Z" fill="#9DC2E7"/>
<path id="Vector_76" d="M495.818 684.649C501.854 684.649 506.748 679.739 506.748 673.682C506.748 667.626 501.854 662.716 495.818 662.716C489.782 662.716 484.889 667.626 484.889 673.682C484.889 679.739 489.782 684.649 495.818 684.649Z" fill="#F26647"/>
<path id="Vector_77" d="M824.532 316.265C826.86 316.265 828.747 314.372 828.747 312.036C828.747 309.7 826.86 307.806 824.532 307.806C822.204 307.806 820.316 309.7 820.316 312.036C820.316 314.372 822.204 316.265 824.532 316.265Z" fill="#F47920"/>
<path id="Vector_78" d="M502.528 382.127C504.856 382.127 506.743 380.234 506.743 377.898C506.743 375.562 504.856 373.668 502.528 373.668C500.2 373.668 498.312 375.562 498.312 377.898C498.312 380.234 500.2 382.127 502.528 382.127Z" fill="#9DC2E7"/>
<path id="Vector_79" d="M376.426 324.857C378.755 324.857 380.642 322.963 380.642 320.627C380.642 318.291 378.755 316.398 376.426 316.398C374.098 316.398 372.211 318.291 372.211 320.627C372.211 322.963 374.098 324.857 376.426 324.857Z" fill="#6561AB"/>
<path id="Vector_80" d="M946.716 88.8226C946.716 88.8226 929.869 71.9517 897.939 78.7004C866.008 85.4491 843.566 136.062 820.318 147.308C797.069 158.556 751.236 191.767 747.811 220.15C792.587 182.738 809.401 199.046 838.545 194.547C867.689 190.048 869.931 155.743 911.968 156.869C954.003 157.993 998.84 210.4 1040.88 181.105C1082.91 151.809 1132.23 116.941 1092.44 88.2615C1052.64 59.5816 971.937 103.444 946.716 88.8226Z" fill="url(#paint14_linear_871_2)"/>
<path id="Vector_81" d="M264.633 202.85C264.633 202.85 260.248 226.322 283.809 248.976C307.368 271.629 361.681 261.684 384.048 274.605C406.415 287.526 459.596 306.778 484.889 293.609C428.847 277.604 432.787 254.475 412.648 232.862C392.512 211.25 363.013 228.737 340.235 193.272C317.456 157.806 335.301 91.0996 287.486 72.7891C239.669 54.4786 183.157 33.2716 181.993 82.4188C180.828 131.566 262.444 173.706 264.633 202.85Z" fill="url(#paint15_linear_871_2)"/>
<path id="Vector_82" d="M1078.42 337.418C1078.42 337.418 1010.05 412.691 995.474 500.948C980.902 589.206 910.81 583.581 887.007 625.196C863.202 666.81 806.474 670.185 780.473 687.056C754.472 703.927 695.235 674.684 685.06 687.056C674.886 699.428 738.193 718.55 820.316 719.674C902.438 720.798 918.128 656.689 990.99 647.691C1063.85 638.693 1136.71 607.201 1162.49 487.977C1188.28 368.757 1144.56 304.954 1078.42 337.418Z" fill="url(#paint16_linear_871_2)"/>
<path id="Vector_83" d="M91.5769 367.729C91.5769 367.729 159.953 443.005 174.527 531.259C189.099 619.516 259.19 613.891 282.993 655.507C306.797 697.121 363.527 700.497 389.528 717.368C415.528 734.238 474.766 704.996 484.941 717.368C495.115 729.739 431.807 748.86 349.685 749.985C267.563 751.109 251.872 686.999 179.011 678.003C106.151 669.004 33.2871 637.512 7.50689 518.29C-18.2767 399.069 25.441 335.264 91.5769 367.729Z" fill="url(#paint17_linear_871_2)"/>
</g>
</g>
<defs>
<linearGradient id="paint0_linear_871_2" x1="758.256" y1="460.907" x2="771.797" y2="676.845" gradientUnits="userSpaceOnUse">
<stop stop-color="#FCAF17"/>
<stop offset="1" stop-color="#F47920"/>
</linearGradient>
<linearGradient id="paint1_linear_871_2" x1="742.45" y1="289.784" x2="743.014" y2="276.922" gradientUnits="userSpaceOnUse">
<stop stop-color="#FBC4AF"/>
<stop offset="1" stop-color="#EA8B69"/>
</linearGradient>
<linearGradient id="paint2_linear_871_2" x1="744.939" y1="295.256" x2="744.516" y2="286.118" gradientUnits="userSpaceOnUse">
<stop stop-color="#FBC4AF"/>
<stop offset="1" stop-color="#EA8B69"/>
</linearGradient>
<linearGradient id="paint3_linear_871_2" x1="716.829" y1="364.237" x2="726.984" y2="298.451" gradientUnits="userSpaceOnUse">
<stop stop-color="#FBC4AF"/>
<stop offset="1" stop-color="#EA8B69"/>
</linearGradient>
<linearGradient id="paint4_linear_871_2" x1="773.271" y1="284.876" x2="781.169" y2="326.386" gradientUnits="userSpaceOnUse">
<stop stop-color="#FBC4AF"/>
<stop offset="1" stop-color="#EA8B69"/>
</linearGradient>
<linearGradient id="paint5_linear_871_2" x1="550.722" y1="223.627" x2="555.655" y2="234.075" gradientUnits="userSpaceOnUse">
<stop stop-color="#FBC4AF"/>
<stop offset="1" stop-color="#EA8B69"/>
</linearGradient>
<linearGradient id="paint6_linear_871_2" x1="543.282" y1="223.368" x2="555.484" y2="228.47" gradientUnits="userSpaceOnUse">
<stop stop-color="#FBC4AF"/>
<stop offset="1" stop-color="#EA8B69"/>
</linearGradient>
<linearGradient id="paint7_linear_871_2" x1="550.279" y1="219.431" x2="558.169" y2="236.141" gradientUnits="userSpaceOnUse">
<stop stop-color="#FBC4AF"/>
<stop offset="1" stop-color="#EA8B69"/>
</linearGradient>
<linearGradient id="paint8_linear_871_2" x1="662.008" y1="235.989" x2="639.643" y2="262.485" gradientUnits="userSpaceOnUse">
<stop stop-color="#FBC4AF"/>
<stop offset="1" stop-color="#EA8B69"/>
</linearGradient>
<linearGradient id="paint9_linear_871_2" x1="599.698" y1="276.49" x2="597.3" y2="248.654" gradientUnits="userSpaceOnUse">
<stop stop-color="#FBC4AF"/>
<stop offset="1" stop-color="#EA8B69"/>
</linearGradient>
<linearGradient id="paint10_linear_871_2" x1="595.626" y1="276.707" x2="596.754" y2="269.538" gradientUnits="userSpaceOnUse">
<stop stop-color="#FBC4AF"/>
<stop offset="1" stop-color="#EA8B69"/>
</linearGradient>
<linearGradient id="paint11_linear_871_2" x1="248.671" y1="402.473" x2="250.223" y2="387.852" gradientUnits="userSpaceOnUse">
<stop stop-color="#FBC4AF"/>
<stop offset="1" stop-color="#EA8B69"/>
</linearGradient>
<linearGradient id="paint12_linear_871_2" x1="268.094" y1="397.582" x2="254.642" y2="398.56" gradientUnits="userSpaceOnUse">
<stop stop-color="#FBC4AF"/>
<stop offset="1" stop-color="#EA8B69"/>
</linearGradient>
<linearGradient id="paint13_linear_871_2" x1="250.483" y1="452.673" x2="262.891" y2="408.267" gradientUnits="userSpaceOnUse">
<stop stop-color="#FBC4AF"/>
<stop offset="1" stop-color="#EA8B69"/>
</linearGradient>
<linearGradient id="paint14_linear_871_2" x1="1007.86" y1="122.836" x2="629.976" y2="210.005" gradientUnits="userSpaceOnUse">
<stop stop-color="white" stop-opacity="0"/>
<stop offset="1" stop-color="#9DC2E7"/>
</linearGradient>
<linearGradient id="paint15_linear_871_2" x1="258.146" y1="133" x2="544.258" y2="395.581" gradientUnits="userSpaceOnUse">
<stop stop-color="white" stop-opacity="0"/>
<stop offset="1" stop-color="#9DC2E7"/>
</linearGradient>
<linearGradient id="paint16_linear_871_2" x1="1047.15" y1="506.685" x2="504.728" y2="631.809" gradientUnits="userSpaceOnUse">
<stop stop-color="white" stop-opacity="0"/>
<stop offset="1" stop-color="#9DC2E7"/>
</linearGradient>
<linearGradient id="paint17_linear_871_2" x1="122.846" y1="536.994" x2="665.273" y2="662.117" gradientUnits="userSpaceOnUse">
<stop stop-color="white" stop-opacity="0"/>
<stop offset="1" stop-color="#9DC2E7"/>
</linearGradient>
<clipPath id="clip0_871_2">
<rect width="1170" height="750" fill="white"/>
</clipPath>
</defs>
</svg>
