<svg width="100" height="90" viewBox="0 0 100 90" fill="none" xmlns="http://www.w3.org/2000/svg">
<path d="M77.6218 16.3888C87.5194 27.9765 92.7394 44.2675 88.5363 56.6732C84.3332 69.0108 70.7071 77.463 56.8776 83.325C43.0481 89.1871 29.0153 92.4589 18.2364 87.7556C7.45753 82.9842 -0.0673373 70.2377 0.000454348 59.0589C0.0682459 47.8802 7.86428 38.2692 15.5247 27.1586C23.1852 16.048 30.7778 3.43777 41.8957 0.643083C53.0135 -2.21977 67.6565 4.73288 77.6218 16.3888Z" fill="#F3E9CD" fill-opacity="0.1"/>
<path d="M42.0176 1.12801L42.0203 1.12729C47.4357 -0.267179 53.7563 0.720133 59.9855 3.52725C66.2098 6.33216 72.3035 10.9376 77.2418 16.7137C87.0716 28.2222 92.1891 44.332 88.063 56.512C86.0037 62.5566 81.6251 67.6799 76.0105 72.0323C70.3969 76.3839 63.576 79.9427 56.6825 82.8647C42.862 88.7229 29.0079 91.9097 18.4372 87.2977C7.85393 82.6119 0.433776 70.0556 0.500445 59.062C0.533621 53.5913 2.45712 48.4798 5.35127 43.3281C7.56111 39.3944 10.3163 35.4704 13.2042 31.3575C14.1062 30.0729 15.0211 28.7699 15.9364 27.4424C16.6789 26.3654 17.4194 25.2765 18.1614 24.1855C21.2606 19.6284 24.3852 15.0339 27.7913 11.1101C32.0106 6.24945 36.605 2.48854 42.0176 1.12801Z" stroke="#CACACA" stroke-opacity="0.1"/>
<path opacity="0.1" d="M87.6218 16.3888C97.5194 27.9765 102.739 44.2675 98.5363 56.6732C94.3332 69.0108 80.7071 77.463 66.8776 83.325C53.0481 89.1871 39.0153 92.4589 28.2364 87.7556C17.4575 82.9842 9.93266 70.2377 10.0005 59.0589C10.0682 47.8802 17.8643 38.2692 25.5247 27.1586C33.1852 16.048 40.7778 3.43777 51.8957 0.643083C63.0135 -2.21977 77.6565 4.73288 87.6218 16.3888Z" fill="#FF6C63"/>
<path d="M71.6665 33.5833V39.75C71.6665 43.5 70.1665 45 66.4165 45H61.9165C58.1665 45 56.6665 43.5 56.6665 39.75V33.5833C56.6665 29.8333 58.1665 28.3333 61.9165 28.3333H66.4165C70.1665 28.3333 71.6665 29.8333 71.6665 33.5833Z" stroke="url(#paint0_linear_118_61)" stroke-width="3" stroke-linecap="round" stroke-linejoin="round"/>
<path d="M53.3335 50.25V56.4167C53.3335 60.1667 51.8335 61.6667 48.0835 61.6667H43.5835C39.8335 61.6667 38.3335 60.1667 38.3335 56.4167V50.25C38.3335 46.5 39.8335 45 43.5835 45H48.0835C51.8335 45 53.3335 46.5 53.3335 50.25Z" stroke="url(#paint1_linear_118_61)" stroke-width="3" stroke-linecap="round" stroke-linejoin="round"/>
<path d="M71.6667 50C71.6667 56.45 66.45 61.6667 60 61.6667L61.75 58.75" stroke="url(#paint2_linear_118_61)" stroke-width="3" stroke-linecap="round" stroke-linejoin="round"/>
<path d="M38.3335 40C38.3335 33.55 43.5502 28.3333 50.0002 28.3333L48.2502 31.25" stroke="url(#paint3_linear_118_61)" stroke-width="3" stroke-linecap="round" stroke-linejoin="round"/>
<defs>
<linearGradient id="paint0_linear_118_61" x1="64.1665" y1="28.3333" x2="64.1665" y2="45" gradientUnits="userSpaceOnUse">
<stop stop-color="#B86ADF"/>
<stop offset="0.515625" stop-color="#FF6C63"/>
<stop offset="1" stop-color="#FFB147"/>
</linearGradient>
<linearGradient id="paint1_linear_118_61" x1="45.8335" y1="45" x2="45.8335" y2="61.6667" gradientUnits="userSpaceOnUse">
<stop stop-color="#B86ADF"/>
<stop offset="0.515625" stop-color="#FF6C63"/>
<stop offset="1" stop-color="#FFB147"/>
</linearGradient>
<linearGradient id="paint2_linear_118_61" x1="65.8333" y1="50" x2="65.8333" y2="61.6667" gradientUnits="userSpaceOnUse">
<stop stop-color="#B86ADF"/>
<stop offset="0.515625" stop-color="#FF6C63"/>
<stop offset="1" stop-color="#FFB147"/>
</linearGradient>
<linearGradient id="paint3_linear_118_61" x1="44.1668" y1="28.3333" x2="44.1668" y2="40" gradientUnits="userSpaceOnUse">
<stop stop-color="#B86ADF"/>
<stop offset="0.515625" stop-color="#FF6C63"/>
<stop offset="1" stop-color="#FFB147"/>
</linearGradient>
</defs>
</svg>
