<svg width="100" height="90" viewBox="0 0 100 90" fill="none" xmlns="http://www.w3.org/2000/svg">
<path d="M77.6218 16.3888C87.5194 27.9765 92.7394 44.2675 88.5363 56.6732C84.3332 69.0108 70.7071 77.463 56.8776 83.325C43.0481 89.1871 29.0153 92.4589 18.2364 87.7556C7.45753 82.9842 -0.0673373 70.2377 0.000454348 59.0589C0.0682459 47.8802 7.86428 38.2692 15.5247 27.1586C23.1852 16.048 30.7778 3.43777 41.8957 0.643083C53.0135 -2.21977 67.6565 4.73288 77.6218 16.3888Z" fill="#F3E9CD" fill-opacity="0.1"/>
<path d="M42.0176 1.12801L42.0203 1.12729C47.4357 -0.267179 53.7563 0.720133 59.9855 3.52725C66.2098 6.33216 72.3035 10.9376 77.2418 16.7137C87.0716 28.2222 92.1891 44.332 88.063 56.512C86.0037 62.5566 81.6251 67.6799 76.0105 72.0323C70.3969 76.3839 63.576 79.9427 56.6825 82.8647C42.8621 88.7228 29.008 91.9096 18.4373 87.2978C7.85399 82.612 0.433776 70.0557 0.500445 59.062C0.533621 53.5913 2.45712 48.4798 5.35127 43.3281C7.56111 39.3944 10.3163 35.4705 13.2042 31.3576C14.1061 30.0729 15.0211 28.7699 15.9364 27.4424C16.6789 26.3654 17.4194 25.2765 18.1614 24.1855C21.2606 19.6284 24.3852 15.0339 27.7913 11.1101C32.0106 6.24945 36.605 2.48854 42.0176 1.12801Z" stroke="#CACACA" stroke-opacity="0.1"/>
<path opacity="0.1" d="M87.6218 16.3888C97.5194 27.9765 102.739 44.2675 98.5363 56.6732C94.3332 69.0108 80.7071 77.463 66.8776 83.325C53.0481 89.1871 39.0153 92.4589 28.2364 87.7556C17.4575 82.9842 9.93266 70.2377 10.0005 59.0589C10.0682 47.8802 17.8643 38.2692 25.5247 27.1586C33.1852 16.048 40.7778 3.43777 51.8957 0.643083C63.0135 -2.21977 77.6565 4.73288 87.6218 16.3888Z" fill="#FF6C63"/>
<path d="M53.2837 28.3333H49.9504C41.617 28.3333 38.2837 31.6666 38.2837 40V50C38.2837 58.3333 41.617 61.6666 49.9504 61.6666H59.9504C68.2837 61.6666 71.617 58.3333 71.617 50V46.6666" stroke="url(#paint0_linear_118_67)" stroke-width="3" stroke-linecap="round" stroke-linejoin="round"/>
<path d="M71.4667 30.9333C69.4167 36.05 64.2667 43.0166 59.9667 46.4666L57.3334 48.5666C57.0001 48.8166 56.6667 49.0166 56.2834 49.1666C56.2834 48.9166 56.2667 48.6666 56.2334 48.4C56.0834 47.2833 55.5834 46.2333 54.6834 45.35C53.7667 44.4333 52.6667 43.9166 51.5334 43.7666C51.2667 43.75 51.0001 43.7333 50.7334 43.75C50.8834 43.3333 51.1001 42.95 51.3834 42.6333L53.4834 40C56.9334 35.7 63.9167 30.5166 69.0167 28.4666C69.8001 28.1666 70.5667 28.4 71.0501 28.8833C71.5501 29.3833 71.7834 30.15 71.4667 30.9333Z" stroke="url(#paint1_linear_118_67)" stroke-width="3" stroke-linecap="round" stroke-linejoin="round"/>
<path d="M56.3003 49.1499C56.3003 50.6166 55.7337 52.0166 54.6837 53.0833C53.867 53.9 52.767 54.4666 51.4503 54.6333L48.167 54.9833C46.3837 55.1833 44.8503 53.6666 45.0503 51.85L45.4003 48.5666C45.717 45.65 48.1503 43.7833 50.7503 43.7333C51.017 43.7166 51.2837 43.7333 51.5503 43.7499C52.6837 43.8999 53.7837 44.4166 54.7003 45.3333C55.6003 46.2333 56.1003 47.2666 56.2503 48.3833C56.2837 48.6499 56.3003 48.9166 56.3003 49.1499Z" stroke="url(#paint2_linear_118_67)" stroke-width="3" stroke-linecap="round" stroke-linejoin="round"/>
<path d="M61.3665 44.9666C61.3665 41.4832 58.5498 38.6499 55.0498 38.6499" stroke="url(#paint3_linear_118_67)" stroke-width="3" stroke-linecap="round" stroke-linejoin="round"/>
<defs>
<linearGradient id="paint0_linear_118_67" x1="54.9504" y1="28.3333" x2="54.9504" y2="61.6666" gradientUnits="userSpaceOnUse">
<stop stop-color="#B86ADF"/>
<stop offset="0.494792" stop-color="#FF6C63"/>
<stop offset="1" stop-color="#FFB147"/>
</linearGradient>
<linearGradient id="paint1_linear_118_67" x1="61.1723" y1="28.3329" x2="61.1723" y2="49.1666" gradientUnits="userSpaceOnUse">
<stop stop-color="#B86ADF"/>
<stop offset="0.494792" stop-color="#FF6C63"/>
<stop offset="1" stop-color="#FFB147"/>
</linearGradient>
<linearGradient id="paint2_linear_118_67" x1="50.6665" y1="43.7264" x2="50.6665" y2="55.001" gradientUnits="userSpaceOnUse">
<stop stop-color="#B86ADF"/>
<stop offset="0.494792" stop-color="#FF6C63"/>
<stop offset="1" stop-color="#FFB147"/>
</linearGradient>
<linearGradient id="paint3_linear_118_67" x1="58.2081" y1="38.6499" x2="58.2081" y2="44.9666" gradientUnits="userSpaceOnUse">
<stop stop-color="#B86ADF"/>
<stop offset="0.494792" stop-color="#FF6C63"/>
<stop offset="1" stop-color="#FFB147"/>
</linearGradient>
</defs>
</svg>
