<svg width="100" height="90" viewBox="0 0 100 90" fill="none" xmlns="http://www.w3.org/2000/svg">
<path d="M77.6218 16.3888C87.5194 27.9765 92.7394 44.2675 88.5363 56.6732C84.3332 69.0108 70.7071 77.463 56.8776 83.325C43.0481 89.1871 29.0153 92.4589 18.2364 87.7556C7.45753 82.9842 -0.0673373 70.2377 0.000454348 59.0589C0.0682459 47.8802 7.86428 38.2692 15.5247 27.1586C23.1852 16.048 30.7778 3.43777 41.8957 0.643083C53.0135 -2.21977 67.6565 4.73288 77.6218 16.3888Z" fill="#F3E9CD" fill-opacity="0.1"/>
<path d="M42.0176 1.12801L42.0203 1.12729C47.4357 -0.267179 53.7563 0.720133 59.9855 3.52725C66.2098 6.33216 72.3035 10.9376 77.2418 16.7137C87.0716 28.2222 92.1891 44.332 88.063 56.512C86.0037 62.5566 81.6251 67.6799 76.0105 72.0323C70.3969 76.3839 63.576 79.9427 56.6825 82.8647C42.862 88.7229 29.0079 91.9097 18.4372 87.2977C7.85393 82.6119 0.433776 70.0556 0.500445 59.062C0.533621 53.5913 2.45712 48.4798 5.35127 43.3281C7.56111 39.3944 10.3163 35.4704 13.2042 31.3575C14.1062 30.0729 15.0211 28.7699 15.9364 27.4424C16.6789 26.3654 17.4194 25.2765 18.1614 24.1855C21.2606 19.6284 24.3852 15.0339 27.7913 11.1101C32.0106 6.24945 36.605 2.48854 42.0176 1.12801Z" stroke="#CACACA" stroke-opacity="0.1"/>
<path d="M87.6218 16.3888C97.5194 27.9765 102.739 44.2675 98.5363 56.6732C94.3332 69.0108 80.7071 77.463 66.8776 83.325C53.0481 89.1871 39.0153 92.4589 28.2364 87.7556C17.4575 82.9842 9.93266 70.2377 10.0005 59.0589C10.0682 47.8802 17.8643 38.2692 25.5247 27.1586C33.1852 16.048 40.7778 3.43777 51.8957 0.643083C63.0135 -2.21977 77.6565 4.73288 87.6218 16.3888Z" fill="#FF6C63" fill-opacity="0.1"/>
<path d="M56.6832 29.8667L66.5165 34.2334C69.3499 35.4834 69.3499 37.55 66.5165 38.8L56.6832 43.1667C55.5665 43.6667 53.7332 43.6667 52.6165 43.1667L42.7832 38.8C39.9499 37.55 39.9499 35.4834 42.7832 34.2334L52.6165 29.8667C53.7332 29.3667 55.5665 29.3667 56.6832 29.8667Z" stroke="url(#paint0_linear_118_100)" stroke-width="3" stroke-linecap="round" stroke-linejoin="round"/>
<path d="M40 43.3333C40 44.7333 41.05 46.35 42.3333 46.9166L53.65 51.95C54.5167 52.3333 55.5 52.3333 56.35 51.95L67.6667 46.9166C68.95 46.35 70 44.7333 70 43.3333" stroke="url(#paint1_linear_118_100)" stroke-width="3" stroke-linecap="round" stroke-linejoin="round"/>
<path d="M40 51.6667C40 53.2167 40.9167 54.6167 42.3333 55.25L53.65 60.2834C54.5167 60.6667 55.5 60.6667 56.35 60.2834L67.6667 55.25C69.0833 54.6167 70 53.2167 70 51.6667" stroke="url(#paint2_linear_118_100)" stroke-width="3" stroke-linecap="round" stroke-linejoin="round"/>
<defs>
<linearGradient id="paint0_linear_118_100" x1="54.6499" y1="29.4917" x2="54.6499" y2="43.5417" gradientUnits="userSpaceOnUse">
<stop stop-color="#B86ADF"/>
<stop offset="0.505208" stop-color="#FF6C63"/>
<stop offset="1" stop-color="#FFB147"/>
</linearGradient>
<linearGradient id="paint1_linear_118_100" x1="55" y1="43.3333" x2="55" y2="52.2375" gradientUnits="userSpaceOnUse">
<stop stop-color="#B86ADF"/>
<stop offset="0.505208" stop-color="#FF6C63"/>
<stop offset="1" stop-color="#FFB147"/>
</linearGradient>
<linearGradient id="paint2_linear_118_100" x1="55" y1="51.6667" x2="55" y2="60.5709" gradientUnits="userSpaceOnUse">
<stop stop-color="#B86ADF"/>
<stop offset="0.505208" stop-color="#FF6C63"/>
<stop offset="1" stop-color="#FFB147"/>
</linearGradient>
</defs>
</svg>
