<svg width="50" height="40" viewBox="0 0 50 40" fill="none" xmlns="http://www.w3.org/2000/svg">
<path d="M12.0152 21.3108C10.2124 21.3045 8.44142 20.8196 6.87281 19.9027C9.08125 25.8005 12.7441 31.0012 17.4989 34.99C17.7709 35.2211 17.9962 35.5053 18.1618 35.8263C18.3274 36.1473 18.4301 36.4987 18.464 36.8607C18.498 37.2226 18.4625 37.5879 18.3596 37.9356C18.2567 38.2834 18.0885 38.6069 17.8644 38.8876C17.6404 39.1682 17.365 39.4007 17.0539 39.5715C16.7428 39.7424 16.4021 39.8483 16.0513 39.8834C15.7006 39.9184 15.3465 39.8818 15.0094 39.7756C14.6724 39.6695 14.3589 39.4959 14.0868 39.2647C4.33816 31.0924 0 19.7769 0 12.7613C0.0167971 10.2807 0.73327 7.85885 2.06194 5.7914C3.39061 3.72394 5.27398 2.10037 7.4821 1.11891C8.91116 0.404652 10.4761 0.0267525 12.064 0.0125084C13.4616 -0.0575867 14.8584 0.165913 16.1698 0.669453C17.4812 1.17299 18.6799 1.94608 19.693 2.94184C20.7062 3.93761 21.5128 5.1353 22.0639 6.4623C22.6151 7.7893 22.8993 9.21796 22.8993 10.6617C22.8993 12.1054 22.6151 13.534 22.0639 14.861C21.5128 16.188 20.7062 17.3857 19.693 18.3815C18.6799 19.3772 17.4812 20.1503 16.1698 20.6539C14.8584 21.1574 13.4616 21.3809 12.064 21.3108H12.0152Z" fill="#FF6C63"/>
<path d="M39.1651 21.3097C37.362 21.3057 35.5905 20.8206 34.0227 19.9016C36.2303 25.7933 39.8835 30.9922 44.6244 34.9889C44.9211 35.2096 45.1709 35.4906 45.3585 35.8146C45.546 36.1387 45.6673 36.4989 45.7149 36.8731C45.7625 37.2473 45.7353 37.6275 45.6351 37.9905C45.5349 38.3535 45.3637 38.6915 45.1322 38.9836C44.9007 39.2758 44.6136 39.516 44.2887 39.6894C43.9639 39.8629 43.608 39.9659 43.2431 39.9921C42.8782 40.0183 42.512 39.9672 42.1669 39.842C41.8219 39.7167 41.5053 39.5199 41.2367 39.2637C31.4881 31.0914 27.1499 19.7758 27.1499 12.7602C27.1615 10.3077 27.857 7.91051 29.1536 5.85492C30.4501 3.79933 32.2927 2.17228 34.4614 1.16813C35.9266 0.432964 37.5358 0.054451 39.1651 0.0617218C40.5627 -0.00836945 41.9596 0.21513 43.271 0.718666C44.5824 1.22221 45.781 1.99529 46.7942 2.99105C47.8074 3.98681 48.614 5.18451 49.1651 6.51151C49.7162 7.83851 50.0004 9.26717 50.0004 10.7109C50.0004 12.1546 49.7162 13.5832 49.1651 14.9102C48.614 16.2372 47.8074 17.4349 46.7942 18.4307C45.781 19.4264 44.5824 20.1995 43.271 20.7031C41.9596 21.2066 40.5627 21.4301 39.1651 21.36V21.3097Z" fill="#FF6C63"/>
</svg>
