<svg width="121" height="120" viewBox="0 0 121 120" fill="none" xmlns="http://www.w3.org/2000/svg">
<path d="M94.0159 21.8517C106.004 37.302 112.326 59.0234 107.236 75.5643C102.145 92.0143 85.6408 103.284 68.8904 111.1C52.1401 118.916 35.1434 123.279 22.088 117.008C9.03259 110.646 -0.0815592 93.6503 0.000550309 78.7452C0.0826598 63.8402 9.52525 51.0255 18.8036 36.2114C28.082 21.3973 37.2783 4.5837 50.7442 0.857444C64.2102 -2.95969 81.9458 6.3105 94.0159 21.8517Z" fill="#F3E9CD" fill-opacity="0.1"/>
<path d="M50.8776 1.33934L50.8806 1.33849C57.4559 -0.52539 65.1251 0.794635 72.6813 4.54311C80.2323 8.28898 87.6267 14.4403 93.6209 22.1582C105.545 37.5261 111.786 59.0805 106.758 75.4171C101.735 91.6469 85.4143 102.838 68.679 110.647C60.326 114.545 51.936 117.569 44.0242 118.843C36.1138 120.116 28.7126 119.634 22.3058 116.557C15.8911 113.431 10.4164 107.676 6.55309 100.834C2.69036 93.9934 0.460024 86.1032 0.500543 78.748C0.541003 71.4033 2.88704 64.5531 6.39885 57.6715C9.07979 52.4181 12.4234 47.176 15.9223 41.6904C17.014 39.9789 18.1208 38.2436 19.2274 36.4768C20.1254 35.0429 21.0214 33.5926 21.9196 32.1388C25.6737 26.062 29.4645 19.9256 33.5962 14.6861C38.7171 8.19198 44.2998 3.1595 50.8776 1.33934Z" stroke="#CACACA" stroke-opacity="0.3"/>
<path opacity="0.1" d="M105.016 21.8517C117.004 37.302 123.326 59.0234 118.236 75.5643C113.145 92.0143 96.6408 103.284 79.8904 111.1C63.1401 118.916 46.1434 123.279 33.088 117.008C20.0326 110.646 10.9184 93.6503 11.0006 78.7452C11.0827 63.8402 20.5253 51.0255 29.8036 36.2114C39.082 21.3973 48.2783 4.5837 61.7442 0.857444C75.2102 -2.95969 92.9458 6.3105 105.016 21.8517Z" fill="#FF6C63"/>
<path d="M78.4719 49.9165C78.347 49.8957 78.2012 49.8957 78.0763 49.9165C75.2035 49.8123 72.9136 47.4582 72.9136 44.5415C72.9136 41.5623 75.3076 39.1665 78.2845 39.1665C81.2614 39.1665 83.6554 41.5832 83.6554 44.5415C83.6346 47.4582 81.3447 49.8123 78.4719 49.9165Z" stroke="url(#paint0_linear_118_141)" stroke-width="3" stroke-linecap="round" stroke-linejoin="round"/>
<path d="M76.3271 65.0833C79.1791 65.5624 82.3226 65.0624 84.5292 63.5833C87.4645 61.6249 87.4645 58.4166 84.5292 56.4583C82.3018 54.9791 79.1167 54.4791 76.2646 54.9791" stroke="url(#paint1_linear_118_141)" stroke-width="3" stroke-linecap="round" stroke-linejoin="round"/>
<path d="M53.4282 49.9165C53.5531 49.8957 53.6988 49.8957 53.8237 49.9165C56.6966 49.8123 58.9865 47.4582 58.9865 44.5415C58.9865 41.5623 56.5925 39.1665 53.6156 39.1665C50.6387 39.1665 48.2446 41.5832 48.2446 44.5415C48.2654 47.4582 50.5554 49.8123 53.4282 49.9165Z" stroke="url(#paint2_linear_118_141)" stroke-width="3" stroke-linecap="round" stroke-linejoin="round"/>
<path d="M55.5725 65.0833C52.7205 65.5624 49.5771 65.0624 47.3704 63.5833C44.4351 61.6249 44.4351 58.4166 47.3704 56.4583C49.5979 54.9791 52.783 54.4791 55.635 54.9791" stroke="url(#paint3_linear_118_141)" stroke-width="3" stroke-linecap="round" stroke-linejoin="round"/>
<path d="M65.9816 65.479C65.8567 65.4582 65.711 65.4582 65.5861 65.479C62.7133 65.3748 60.4233 63.0207 60.4233 60.104C60.4233 57.1248 62.8174 54.729 65.7943 54.729C68.7712 54.729 71.1652 57.1457 71.1652 60.104C71.1444 63.0207 68.8545 65.3957 65.9816 65.479Z" stroke="url(#paint4_linear_118_141)" stroke-width="3" stroke-linecap="round" stroke-linejoin="round"/>
<path d="M59.9231 72.0415C56.9879 73.9998 56.9879 77.2082 59.9231 79.1665C63.254 81.3957 68.7082 81.3957 72.039 79.1665C74.9743 77.2082 74.9743 73.9998 72.039 72.0415C68.729 69.8332 63.254 69.8332 59.9231 72.0415Z" stroke="url(#paint5_linear_118_141)" stroke-width="3" stroke-linecap="round" stroke-linejoin="round"/>
<defs>
<linearGradient id="paint0_linear_118_141" x1="78.2845" y1="39.1665" x2="78.2845" y2="49.9165" gradientUnits="userSpaceOnUse">
<stop stop-color="#B86ADF"/>
<stop offset="0.515625" stop-color="#FF6C63"/>
<stop offset="1" stop-color="#FFB147"/>
</linearGradient>
<linearGradient id="paint1_linear_118_141" x1="81.4977" y1="54.7913" x2="81.4977" y2="65.2591" gradientUnits="userSpaceOnUse">
<stop stop-color="#B86ADF"/>
<stop offset="0.515625" stop-color="#FF6C63"/>
<stop offset="1" stop-color="#FFB147"/>
</linearGradient>
<linearGradient id="paint2_linear_118_141" x1="53.6156" y1="39.1665" x2="53.6156" y2="49.9165" gradientUnits="userSpaceOnUse">
<stop stop-color="#B86ADF"/>
<stop offset="0.515625" stop-color="#FF6C63"/>
<stop offset="1" stop-color="#FFB147"/>
</linearGradient>
<linearGradient id="paint3_linear_118_141" x1="50.402" y1="54.7913" x2="50.402" y2="65.2591" gradientUnits="userSpaceOnUse">
<stop stop-color="#B86ADF"/>
<stop offset="0.515625" stop-color="#FF6C63"/>
<stop offset="1" stop-color="#FFB147"/>
</linearGradient>
<linearGradient id="paint4_linear_118_141" x1="65.7943" y1="54.729" x2="65.7943" y2="65.479" gradientUnits="userSpaceOnUse">
<stop stop-color="#B86ADF"/>
<stop offset="0.515625" stop-color="#FF6C63"/>
<stop offset="1" stop-color="#FFB147"/>
</linearGradient>
<linearGradient id="paint5_linear_118_141" x1="65.9811" y1="70.3853" x2="65.9811" y2="80.8384" gradientUnits="userSpaceOnUse">
<stop stop-color="#B86ADF"/>
<stop offset="0.515625" stop-color="#FF6C63"/>
<stop offset="1" stop-color="#FFB147"/>
</linearGradient>
</defs>
</svg>
