<svg width="121" height="120" viewBox="0 0 121 120" fill="none" xmlns="http://www.w3.org/2000/svg">
<path d="M94.0871 21.8517C106.084 37.302 112.411 59.0234 107.317 75.5643C102.222 92.0143 85.7056 103.284 68.9426 111.1C52.1795 118.916 35.17 123.279 22.1047 117.008C9.03943 110.646 -0.0816209 93.6503 0.000550725 78.7452C0.0827224 63.8402 9.53246 51.0255 18.8179 36.2114C28.1032 21.3973 37.3065 4.5837 50.7826 0.857444C64.2588 -2.95969 82.0078 6.3105 94.0871 21.8517Z" fill="#F3E9CD" fill-opacity="0.1"/>
<path d="M50.9159 1.33937L50.9189 1.33852C57.4994 -0.52543 65.1746 0.794666 72.7366 4.54318C80.2934 8.28909 87.6934 14.4404 93.6922 22.1584C105.625 37.5262 111.87 59.0804 106.839 75.4169C101.812 91.6467 85.4794 102.838 68.7313 110.647C60.3719 114.545 51.9755 117.569 44.0576 118.843C36.1411 120.116 28.7341 119.634 22.3222 116.557C15.9026 113.431 10.4238 107.676 6.55764 100.834C2.69199 93.9932 0.459994 86.1031 0.500543 78.748C0.541034 71.4034 2.88882 64.5532 6.40328 57.6717C9.08625 52.4183 12.4323 47.1762 15.9339 41.6906C17.0265 39.979 18.1341 38.2437 19.2415 36.477C20.1403 35.0431 21.0369 33.5927 21.9357 32.1389C25.6927 26.0621 29.4864 19.9258 33.6212 14.6862C38.746 8.19215 44.333 3.15958 50.9159 1.33937Z" stroke="#CACACA" stroke-opacity="0.3"/>
<path opacity="0.1" d="M105.087 21.8517C117.084 37.302 123.411 59.0234 118.317 75.5643C113.222 92.0143 96.7056 103.284 79.9426 111.1C63.1795 118.916 46.17 123.279 33.1047 117.008C20.0394 110.646 10.9184 93.6503 11.0006 78.7452C11.0827 63.8402 20.5325 51.0255 29.8179 36.2114C39.1032 21.3973 48.3065 4.5837 61.7826 0.857444C75.2588 -2.95969 93.0078 6.3105 105.087 21.8517Z" fill="#FF6C63"/>
<path d="M62.8545 39.646L52.4587 43.5627C50.0628 44.4585 48.1045 47.2918 48.1045 49.8335V65.3127C48.1045 67.771 49.7295 71.0002 51.7087 72.4793L60.667 79.1668C63.6045 81.3752 68.4378 81.3752 71.3753 79.1668L80.3337 72.4793C82.3128 71.0002 83.9378 67.771 83.9378 65.3127V49.8335C83.9378 47.271 81.9795 44.4377 79.5837 43.5418L69.1878 39.646C67.417 39.0002 64.5837 39.0002 62.8545 39.646Z" stroke="url(#paint0_linear_118_133)" stroke-width="3" stroke-linecap="round" stroke-linejoin="round"/>
<path d="M59.8535 59.7289L63.2077 63.0831L72.166 54.1248" stroke="url(#paint1_linear_118_133)" stroke-width="3" stroke-linecap="round" stroke-linejoin="round"/>
<defs>
<linearGradient id="paint0_linear_118_133" x1="66.0212" y1="39.1616" x2="66.0212" y2="80.8231" gradientUnits="userSpaceOnUse">
<stop stop-color="#B86ADF"/>
<stop offset="0.515625" stop-color="#FF6C63"/>
<stop offset="1" stop-color="#FFB147"/>
</linearGradient>
<linearGradient id="paint1_linear_118_133" x1="66.0098" y1="54.1248" x2="66.0098" y2="63.0831" gradientUnits="userSpaceOnUse">
<stop stop-color="#B86ADF"/>
<stop offset="0.515625" stop-color="#FF6C63"/>
<stop offset="1" stop-color="#FFB147"/>
</linearGradient>
</defs>
</svg>
