<svg width="121" height="120" viewBox="0 0 121 120" fill="none" xmlns="http://www.w3.org/2000/svg">
<path d="M94.0871 21.8517C106.084 37.302 112.411 59.0234 107.317 75.5643C102.222 92.0143 85.7056 103.284 68.9426 111.1C52.1795 118.916 35.17 123.279 22.1047 117.008C9.03943 110.646 -0.0816209 93.6503 0.000550725 78.7452C0.0827224 63.8402 9.53246 51.0255 18.8179 36.2114C28.1032 21.3973 37.3065 4.5837 50.7826 0.857444C64.2588 -2.95969 82.0078 6.3105 94.0871 21.8517Z" fill="#F3E9CD" fill-opacity="0.1"/>
<path d="M50.9159 1.33937L50.9189 1.33852C57.4994 -0.52543 65.1746 0.794666 72.7366 4.54318C80.2934 8.28909 87.6934 14.4404 93.6922 22.1584C105.625 37.5262 111.87 59.0804 106.839 75.4169C101.812 91.6467 85.4794 102.838 68.7313 110.647C60.3719 114.545 51.9755 117.569 44.0576 118.843C36.1411 120.116 28.7341 119.634 22.3222 116.557C15.9026 113.431 10.4238 107.676 6.55764 100.834C2.69199 93.9932 0.459994 86.1031 0.500543 78.748C0.541034 71.4034 2.88882 64.5532 6.40328 57.6717C9.08625 52.4183 12.4323 47.1762 15.9339 41.6906C17.0265 39.979 18.1341 38.2437 19.2415 36.477C20.1403 35.0431 21.0369 33.5927 21.9357 32.1389C25.6927 26.0621 29.4864 19.9258 33.6212 14.6862C38.746 8.19215 44.333 3.15958 50.9159 1.33937Z" stroke="#CACACA" stroke-opacity="0.3"/>
<path opacity="0.1" d="M105.087 21.8517C117.084 37.302 123.411 59.0234 118.317 75.5643C113.222 92.0143 96.7056 103.284 79.9426 111.1C63.1795 118.916 46.17 123.279 33.1047 117.008C20.0394 110.646 10.9184 93.6503 11.0006 78.7452C11.0827 63.8402 20.5325 51.0255 29.8179 36.2114C39.1032 21.3973 48.3065 4.5837 61.7826 0.857444C75.2588 -2.95969 93.0078 6.3105 105.087 21.8517Z" fill="#FF6C63"/>
<path d="M58.7498 80.8334H71.2498C81.6665 80.8334 85.8332 76.6668 85.8332 66.2501V53.7501C85.8332 43.3334 81.6665 39.1667 71.2498 39.1667H58.7498C48.3332 39.1667 44.1665 43.3334 44.1665 53.7501V66.2501C44.1665 76.6668 48.3332 80.8334 58.7498 80.8334Z" stroke="url(#paint0_linear_118_149)" stroke-width="3" stroke-linecap="round" stroke-linejoin="round"/>
<path d="M72.2917 73.5416C74.5833 73.5416 76.4583 71.6666 76.4583 69.3749V50.6249C76.4583 48.3333 74.5833 46.4583 72.2917 46.4583C70 46.4583 68.125 48.3333 68.125 50.6249V69.3749C68.125 71.6666 69.9792 73.5416 72.2917 73.5416Z" stroke="url(#paint1_linear_118_149)" stroke-width="3" stroke-linecap="round" stroke-linejoin="round"/>
<path d="M57.7082 73.5417C59.9998 73.5417 61.8748 71.6667 61.8748 69.3751V62.0834C61.8748 59.7917 59.9998 57.9167 57.7082 57.9167C55.4165 57.9167 53.5415 59.7917 53.5415 62.0834V69.3751C53.5415 71.6667 55.3957 73.5417 57.7082 73.5417Z" stroke="url(#paint2_linear_118_149)" stroke-width="3" stroke-linecap="round" stroke-linejoin="round"/>
<defs>
<linearGradient id="paint0_linear_118_149" x1="64.9998" y1="39.1667" x2="64.9998" y2="80.8334" gradientUnits="userSpaceOnUse">
<stop stop-color="#B86ADF"/>
<stop offset="0.5" stop-color="#FF6C63"/>
<stop offset="1" stop-color="#FFB147"/>
</linearGradient>
<linearGradient id="paint1_linear_118_149" x1="72.2917" y1="46.4583" x2="72.2917" y2="73.5416" gradientUnits="userSpaceOnUse">
<stop stop-color="#B86ADF"/>
<stop offset="0.5" stop-color="#FF6C63"/>
<stop offset="1" stop-color="#FFB147"/>
</linearGradient>
<linearGradient id="paint2_linear_118_149" x1="57.7082" y1="57.9167" x2="57.7082" y2="73.5417" gradientUnits="userSpaceOnUse">
<stop stop-color="#B86ADF"/>
<stop offset="0.5" stop-color="#FF6C63"/>
<stop offset="1" stop-color="#FFB147"/>
</linearGradient>
</defs>
</svg>
