<svg width="139" height="31" viewBox="0 0 139 31" fill="none" xmlns="http://www.w3.org/2000/svg">
<path d="M46.648 25L50.008 8.248H56.224C57.84 8.248 59.064 8.64 59.896 9.424C60.744 10.192 61.168 11.248 61.168 12.592C61.168 13.472 61.016 14.28 60.712 15.016C60.408 15.752 59.976 16.384 59.416 16.912C58.872 17.44 58.216 17.856 57.448 18.16C56.696 18.448 55.856 18.592 54.928 18.592H50.968L49.672 25H46.648ZM51.496 15.904H55.336C55.944 15.904 56.464 15.744 56.896 15.424C57.344 15.104 57.632 14.616 57.76 13.96C57.84 13.544 57.904 13.216 57.952 12.976C58.016 12.736 58.048 12.544 58.048 12.4C58.048 11.984 57.904 11.64 57.616 11.368C57.344 11.08 56.896 10.936 56.272 10.936H52.504L51.496 15.904ZM66.4313 25.288C64.9593 25.288 63.7833 24.84 62.9033 23.944C62.0233 23.048 61.5833 21.76 61.5833 20.08C61.5833 18.976 61.7433 17.944 62.0633 16.984C62.3833 16.024 62.8313 15.192 63.4073 14.488C63.9833 13.768 64.6633 13.208 65.4473 12.808C66.2313 12.392 67.0953 12.184 68.0393 12.184C69.5113 12.184 70.6873 12.632 71.5673 13.528C72.4473 14.424 72.8873 15.712 72.8873 17.392C72.8873 18.496 72.7273 19.528 72.4073 20.488C72.0873 21.448 71.6393 22.288 71.0633 23.008C70.4873 23.712 69.7993 24.272 68.9993 24.688C68.2153 25.088 67.3593 25.288 66.4313 25.288ZM66.5993 22.888C67.3193 22.888 67.9273 22.624 68.4233 22.096C68.9353 21.568 69.2873 20.8 69.4793 19.792L69.9113 17.704C69.9433 17.544 69.9673 17.408 69.9833 17.296C69.9993 17.168 70.0073 17.016 70.0073 16.84C70.0073 16.168 69.8233 15.624 69.4553 15.208C69.1033 14.792 68.5753 14.584 67.8713 14.584C67.1513 14.584 66.5353 14.848 66.0233 15.376C65.5273 15.904 65.1833 16.672 64.9913 17.68L64.5593 19.792C64.5273 19.92 64.5033 20.048 64.4873 20.176C64.4713 20.304 64.4633 20.456 64.4633 20.632C64.4633 21.304 64.6393 21.848 64.9913 22.264C65.3593 22.68 65.8953 22.888 66.5993 22.888ZM74.2774 25L76.7974 12.472H79.7014L79.1254 15.352H79.2694C79.4134 15.016 79.5974 14.68 79.8214 14.344C80.0454 14.008 80.3094 13.704 80.6134 13.432C80.9334 13.144 81.2854 12.912 81.6694 12.736C82.0694 12.56 82.5174 12.472 83.0134 12.472H83.6614L83.0614 15.328H82.2214C81.1334 15.328 80.2934 15.56 79.7014 16.024C79.1254 16.472 78.7414 17.184 78.5494 18.16L77.1814 25H74.2774ZM87.3456 25C85.6176 25 84.7536 24.288 84.7536 22.864C84.7536 22.736 84.7616 22.592 84.7776 22.432C84.7936 22.256 84.8176 22.08 84.8496 21.904L86.2656 14.848H84.4656L84.9216 12.472H85.8096C86.3056 12.472 86.6336 12.376 86.7936 12.184C86.9696 11.976 87.0976 11.656 87.1776 11.224L87.6096 9.04H90.3216L89.6496 12.472H92.1696L91.6896 14.848H89.1696L87.6096 22.624H89.9856L89.5056 25H87.3456ZM95.239 26.464C95.015 27.552 94.575 28.376 93.919 28.936C93.263 29.512 92.335 29.8 91.135 29.8H89.383L89.863 27.424H92.143L94.663 14.848H92.887L93.367 12.472H95.143L95.527 10.576C95.751 9.488 96.191 8.664 96.847 8.104C97.503 7.528 98.439 7.24 99.655 7.24H101.503L100.999 9.616H98.623L98.047 12.472H100.519L100.039 14.848H97.567L95.239 26.464ZM105.15 25.288C103.678 25.288 102.502 24.84 101.622 23.944C100.742 23.048 100.302 21.76 100.302 20.08C100.302 18.976 100.462 17.944 100.782 16.984C101.102 16.024 101.55 15.192 102.126 14.488C102.702 13.768 103.382 13.208 104.166 12.808C104.95 12.392 105.814 12.184 106.758 12.184C108.23 12.184 109.406 12.632 110.286 13.528C111.166 14.424 111.606 15.712 111.606 17.392C111.606 18.496 111.446 19.528 111.126 20.488C110.806 21.448 110.358 22.288 109.782 23.008C109.206 23.712 108.518 24.272 107.718 24.688C106.934 25.088 106.078 25.288 105.15 25.288ZM105.318 22.888C106.038 22.888 106.646 22.624 107.142 22.096C107.654 21.568 108.006 20.8 108.198 19.792L108.63 17.704C108.662 17.544 108.686 17.408 108.702 17.296C108.718 17.168 108.726 17.016 108.726 16.84C108.726 16.168 108.542 15.624 108.174 15.208C107.822 14.792 107.294 14.584 106.59 14.584C105.87 14.584 105.254 14.848 104.742 15.376C104.246 15.904 103.902 16.672 103.71 17.68L103.278 19.792C103.246 19.92 103.222 20.048 103.206 20.176C103.19 20.304 103.182 20.456 103.182 20.632C103.182 21.304 103.358 21.848 103.71 22.264C104.078 22.68 104.614 22.888 105.318 22.888ZM115.444 25C114.82 25 114.324 24.84 113.956 24.52C113.604 24.184 113.428 23.744 113.428 23.2C113.428 23.104 113.428 23.024 113.428 22.96C113.444 22.88 113.468 22.768 113.5 22.624L116.572 7.24H119.476L116.404 22.624H118.012L117.556 25H115.444ZM124.021 10.648C123.493 10.648 123.109 10.544 122.869 10.336C122.629 10.128 122.509 9.856 122.509 9.52C122.509 9.28 122.549 8.976 122.629 8.608C122.725 8.208 122.909 7.864 123.181 7.576C123.469 7.272 123.957 7.12 124.645 7.12C125.173 7.12 125.557 7.224 125.797 7.432C126.037 7.64 126.157 7.912 126.157 8.248C126.157 8.488 126.117 8.792 126.037 9.16C125.941 9.56 125.749 9.912 125.461 10.216C125.189 10.504 124.709 10.648 124.021 10.648ZM122.053 25C121.445 25 120.957 24.84 120.589 24.52C120.237 24.184 120.061 23.744 120.061 23.2C120.061 23.04 120.085 22.84 120.133 22.6L122.149 12.472H125.053L123.037 22.624H124.549L124.069 25H122.053ZM131.517 25.288C130.045 25.288 128.869 24.84 127.989 23.944C127.109 23.048 126.669 21.76 126.669 20.08C126.669 18.976 126.829 17.944 127.149 16.984C127.469 16.024 127.917 15.192 128.493 14.488C129.069 13.768 129.749 13.208 130.533 12.808C131.317 12.392 132.181 12.184 133.125 12.184C134.597 12.184 135.773 12.632 136.653 13.528C137.533 14.424 137.973 15.712 137.973 17.392C137.973 18.496 137.813 19.528 137.493 20.488C137.173 21.448 136.725 22.288 136.149 23.008C135.573 23.712 134.885 24.272 134.085 24.688C133.301 25.088 132.445 25.288 131.517 25.288ZM131.685 22.888C132.405 22.888 133.013 22.624 133.509 22.096C134.021 21.568 134.373 20.8 134.565 19.792L134.997 17.704C135.029 17.544 135.053 17.408 135.069 17.296C135.085 17.168 135.093 17.016 135.093 16.84C135.093 16.168 134.909 15.624 134.541 15.208C134.189 14.792 133.661 14.584 132.957 14.584C132.237 14.584 131.621 14.848 131.109 15.376C130.613 15.904 130.269 16.672 130.077 17.68L129.645 19.792C129.613 19.92 129.589 20.048 129.573 20.176C129.557 20.304 129.549 20.456 129.549 20.632C129.549 21.304 129.725 21.848 130.077 22.264C130.445 22.68 130.981 22.888 131.685 22.888Z" fill="white"/>
<path d="M33.097 18.9774C36.1804 17.3547 38.2374 14.4491 38.2374 10.0113C38.2374 2.29057 32.3648 0 25.5122 0H0L8.42144 6.48679H24.9234C28.251 6.48679 30.0135 7.34717 30.0135 10.0151C30.0135 12.683 28.251 14.117 24.9234 14.117H12.5121L25.3805 14.6L11.9775 15.0642L24.8188 15.5245L11.4429 15.9887L24.2572 16.4491L10.9084 16.9132L23.6955 17.3736L10.3738 17.8377L23.1338 18.2981L9.83922 18.7623L22.5721 19.2226L9.30852 19.683L22.0104 20.1434L8.77395 20.6038H25.121L30.6023 31H39.9999L33.097 18.9849V18.9774Z" fill="url(#paint0_linear_630_4586)"/>
<path d="M33.5889 6.48679C35.3631 6.48679 36.9707 7.18868 38.1328 8.32453C37.3232 1.95094 31.8341 0 25.5122 0H0L8.42144 6.48679H33.5889Z" fill="url(#paint1_linear_630_4586)"/>
<path d="M33.0969 18.9774C33.0969 18.9774 33.1162 18.9661 33.124 18.9623C30.9702 20.0604 28.2625 20.5245 25.3688 20.5811L24.4004 20.6H25.1209L30.6022 30.9962H39.9998L33.0969 18.9811V18.9774Z" fill="url(#paint2_linear_630_4586)"/>
<defs>
<linearGradient id="paint0_linear_630_4586" x1="12.1678" y1="3.27595" x2="27.6682" y2="32.8822" gradientUnits="userSpaceOnUse">
<stop stop-color="#FFB147"/>
<stop offset="0.541667" stop-color="#FF6C63"/>
<stop offset="1" stop-color="#B86ADF"/>
</linearGradient>
<linearGradient id="paint1_linear_630_4586" x1="11.5999" y1="0.879701" x2="13.0619" y2="10.7935" gradientUnits="userSpaceOnUse">
<stop stop-color="#FFB147"/>
<stop offset="0.541667" stop-color="#FF6C63"/>
<stop offset="1" stop-color="#B86ADF"/>
</linearGradient>
<linearGradient id="paint2_linear_630_4586" x1="29.1457" y1="20.234" x2="35.147" y2="31.7496" gradientUnits="userSpaceOnUse">
<stop stop-color="#FFB147"/>
<stop offset="0.541667" stop-color="#FF6C63"/>
<stop offset="1" stop-color="#B86ADF"/>
</linearGradient>
</defs>
</svg>
