<svg width="50" height="50" viewBox="0 0 50 50" fill="none" xmlns="http://www.w3.org/2000/svg">
<path d="M25.0001 16.4375L22.771 20.3125C22.271 21.1667 22.6876 21.875 23.6668 21.875H26.3126C27.3126 21.875 27.7085 22.5833 27.2085 23.4375L25.0001 27.3125" stroke="#FF6C63" stroke-width="2" stroke-linecap="round" stroke-linejoin="round"/>
<path d="M17.2917 37.5835V35.1668C12.5 32.271 8.5625 26.6252 8.5625 20.6252C8.5625 10.3127 18.0417 2.22933 28.75 4.56266C33.4583 5.60433 37.5833 8.72933 39.7292 13.0418C44.0833 21.7918 39.5 31.0835 32.7708 35.146V37.5627C32.7708 38.1668 33 39.5627 30.7708 39.5627H19.2917C17 39.5835 17.2917 38.6877 17.2917 37.5835Z" stroke="#FF6C63" stroke-width="2" stroke-linecap="round" stroke-linejoin="round"/>
<path d="M17.709 45.8333C22.4798 44.4791 27.5215 44.4791 32.2923 45.8333" stroke="#FF6C63" stroke-width="2" stroke-linecap="round" stroke-linejoin="round"/>
</svg>
