<svg width="50" height="50" viewBox="0 0 50 50" fill="none" xmlns="http://www.w3.org/2000/svg">
<path d="M27.1035 6.08325L39.3952 11.5416C42.9368 13.1041 42.9368 15.6874 39.3952 17.2499L27.1035 22.7083C25.7077 23.3333 23.416 23.3333 22.0202 22.7083L9.72852 17.2499C6.18685 15.6874 6.18685 13.1041 9.72852 11.5416L22.0202 6.08325C23.416 5.45825 25.7077 5.45825 27.1035 6.08325Z" stroke="#FF6C63" stroke-width="2" stroke-linecap="round" stroke-linejoin="round"/>
<path d="M6.25 22.9166C6.25 24.6666 7.5625 26.6875 9.16667 27.3958L23.3125 33.6875C24.3958 34.1666 25.625 34.1666 26.6875 33.6875L40.8333 27.3958C42.4375 26.6875 43.75 24.6666 43.75 22.9166" stroke="#FF6C63" stroke-width="2" stroke-linecap="round" stroke-linejoin="round"/>
<path d="M6.25 33.3334C6.25 35.2709 7.39583 37.0209 9.16667 37.8125L23.3125 44.1042C24.3958 44.5834 25.625 44.5834 26.6875 44.1042L40.8333 37.8125C42.6042 37.0209 43.75 35.2709 43.75 33.3334" stroke="#FF6C63" stroke-width="2" stroke-linecap="round" stroke-linejoin="round"/>
</svg>
